<svg xmlns="http://www.w3.org/2000/svg" height="800" width="1200" version="1.0" viewBox="-385.61475 -186.74875 3341.9945 1120.4925"><path d="M2493.334 320.724c-2.633 22.548-16.26 38.777-24.778 58.848-3.16 7.433-2.509 16.136-6.195 21.68-2.26 3.376-4.212 5.575-6.194 9.292-1.704 3.19-4.522 3.779-6.195 6.195-.774 1.115 1.022 5.358 0 6.194-.402.34-2.85-.434-3.097 0-.65 1.146.96 5.42 0 6.195-.372.31-2.911-.372-3.097 0-.527 1.115.898 5.45 0 6.194-2.54 2.075-2.137 2.354-3.098 6.195 0 0-2.818 9.075-3.097 9.291-4.398 3.593-4.677 19.575-9.292 27.876-.898 1.641-2.91-.403-3.097 3.097-.03.681.34 2.509 0 3.097-1.115 2.013-5.203 4.43-6.194 6.195-.62 1.146.96 5.42 0 6.194-2.54 2.075-2.137 2.354-3.098 6.195 0 0-2.849 9.075-3.097 9.291-2.075 1.704-5.76 8.766-9.292 15.487-4.893 9.322-10.902 18.428-15.486 27.875-2.509 5.141-3.995 10.84-6.194 15.486-3.438 7.248-7.558 11.615-9.292 18.584-1.363 5.42-4.739 9.694-6.195 15.486-.402 1.61.837 4.8 0 6.194-.836 1.425-5.544 1.859-6.194 3.098-1.89 3.562-1.332 6.132-3.097 9.291-.899 1.642-2.912-.402-3.098 3.098-.123 2.632-4.707 6.845-6.194 9.291-4.274 6.938-8.517 24.066-15.486 34.07-4.43-1.827-8.022-.867-12.39-3.097-1.92-.991-4.552-5.39-6.194-6.195-4.274-2.137-8.022-.867-12.389-3.097-1.858-.96-4.615-5.451-6.194-6.194-3.283-1.518-7.867-1.115-12.39-3.098-1.672-.743-4.862-5.73-6.194-6.194-6.473-2.323-9.942.588-15.486-3.097-3.438-2.292-6.473-3.47-9.292-6.195-.681-.65-8.331-4.367-12.389-6.194-5.141-2.323-9.756-4.77-15.486-6.195-6.07-1.517-8.208-.433-12.39-3.097-3.034-1.92-4.862-1.982-9.29-3.097-3.191-.806-6.629-4.615-12.39-6.195-1.92-.526-4.274.496-6.194 0-3.965-.991-12.204-3.84-21.681-6.194-16.508-4.12-41.968-18.863-61.945-24.778-15.084-4.491-31.22-4.367-46.459-9.292-1.053-.34-.062-2.942-3.097-3.097-6.628-.341-8.518-3.376-15.486-6.195-9.478-3.84-17.562-7.03-30.973-9.292-1.982-.34-4.243.496-6.194 0-12.328-3.066-38.344-13.751-55.751-18.583-1.92-.527-4.274.495-6.194 0-4.12-1.022-16.942-7.34-24.778-9.292-7.898-1.951-17.035-1.27-24.778-3.097-.65-.155-.372-2.943-3.098-3.097-19.358-1.022-38.375-10.593-58.848-15.487-6.659-1.58-9.198-.743-18.583-3.097-3.19-.805-17.438-4.925-27.875-6.194-4.058-.496-8.332.526-12.39 0-6.442-.868-12.822-1.363-24.777-3.098-4.801-.712-5.359-2.385-9.292-3.097-11.181-1.982-23.725-1.58-30.973-6.194-5.017-3.19-23.91-8.332-34.07-9.292-17.654-1.673-35.215 3.53-52.653 3.097-13.504-.34-27.286-4.615-40.264-6.194-14.061-1.704-26.791-1.549-40.233-3.098.684 0-1.982-2.818-3.128-3.097-4.74-1.177-10.593.434-15.487 0-2.85-.248-4.676-3.717-9.291-3.097-2.51.34-3.098 3.376-6.195 3.097-11.893-1.053-25.397-5.358-37.167-6.194-33.048-2.323-60.954-.186-92.917-3.098-43.796-3.964-97.068-.247-145.571 0-39.583.217-78.701-.34-117.696 3.098-33.946 3.004-65.816 2.942-102.21 6.194-5.977.527-8.547 3.066-12.388 3.097-13.659.124-26.605-4.212-40.264-3.097-2.261.186-3.47 2.509-6.195 3.097-2.973.65-6.318-.62-9.292 0-8.331 1.704-15.362 3.252-21.68 6.195-2.385 1.115-2.726 4.832-6.195 6.194-1.765.713-4.336-.464-6.194 0-3.283.837-8.549 2.261-18.584 3.098-1.951.154-4.305-.465-6.194 0-4.027 1.022-17.066 4.367-27.876 6.194-20.008 3.407-39.335 6.009-58.847 9.292-1.983.34-4.244-.496-6.195 0-10.19 2.54-33.233 6.442-49.556 9.292-7.31 1.27-15.27 1.672-21.68 3.097-.59.124-.434 2.973-3.098 3.097-11.367.589-27.38 5.42-40.264 9.292-3.903 1.177-10.252 4.894-15.486 6.194-5.885 1.456-7.991-.124-15.487 3.098-1.641.712-4.955 5.76-6.194 6.194-5.451 1.828-8.3 1.673-12.39 3.097-4.057 1.394-5.791 2.2-9.291 3.098-6.814 1.765-14.65 1.177-21.68 3.097-.837.217-.218 2.942-3.098 3.097-9.601.496-12.792 3.965-21.68 6.195-30.26 7.557-66.994 16.6-99.113 27.875-1.146.403.031 2.942-3.097 3.097-.836.031-2.354-.31-3.097 0-3.067 1.24-4.956 2.013-9.292 3.097-2.509.62-2.292 2.85-3.097 3.098-6.412 1.827-14.464.712-21.681 3.097-1.084.372-.031 2.942-3.097 3.097-6.721.34-8.394 3.531-15.487 6.195-28.587 10.747-64.391 22.981-96.014 34.07-4.46 1.548-9.912 4.8-15.487 6.194-5.884 1.456-7.99-.124-15.486 3.097-1.92.836-4.615 5.482-6.194 6.195-5.142 2.323-8.394.774-12.39 3.097-1.95 1.146-4.46 5.265-6.194 6.194-5.203 2.819-11.738 7.279-18.583 6.195-4.863-4.925-8.084-12.39-12.39-18.584-1.207-1.734-2.91.496-3.097-3.097-.062-.96-2.385-5.11-3.097-6.194-1.27-1.89-5.203-4.43-6.194-6.195-2.045-3.593-.96-7.526-3.098-12.389-.867-1.951-5.45-4.584-6.194-6.194-2.044-4.336-.867-8.022-3.097-12.39-.96-1.889-5.452-4.583-6.195-6.194-2.044-4.336-.867-8.022-3.097-12.389-.898-1.765-5.544-4.708-6.195-6.194-2.106-4.894-1.58-8.58-3.097-12.39-5.265-13.287-12.42-33.574-18.583-49.555-1.146-2.974-1.24-8.177-3.098-12.39-.805-1.827-5.575-4.707-6.194-6.194-2.695-6.473-3.19-15.734-6.195-21.68-.681-1.363-5.699-1.952-6.194-3.098-.744-1.641.898-4.646 0-6.194-1.208-2.045-5.142-4.368-6.195-6.195-.681-1.146.96-5.39 0-6.194-4.119-3.376-5.575-5.359-9.291-12.39-13.597-25.676-27.411-50.918-30.973-80.528-11.553-9.106-15.084-26.203-18.583-43.361 5.606-5.761 15.64-7.062 24.778-9.292 4.522-3.872 8.982-5.142 15.486-9.292 3.5-2.23 6.442-3.469 9.292-6.194 2.508-2.416 5.141-2.076 9.291-3.098 3.283-.836 1.363-2.199 3.098-3.097 5.668-2.88 11.645-6.163 18.583-9.292 4.367-1.982 8.022-.867 12.39-3.097 1.672-.867 4.8-5.668 6.194-6.194 4.893-1.92 8.703-1.952 12.389-3.098 4.955-1.517 7.278-1.455 12.389-3.097 1.022-.34.062-2.942 3.097-3.097 6.752-.34 7.712-1.92 12.389-3.097 4.8-1.208 7.65-1.208 12.389-3.098 3.469-1.393 12.637-5.513 18.583-9.291 3.036-1.92 4.863-1.983 9.292-3.098 2.664-.65 2.106-2.787 3.097-3.097 7.744-2.478 16.664-1.3 24.778-3.097.589-.124.434-2.943 3.098-3.097 12.296-.65 26.853-5.11 40.264-9.292.464-.155.991-2.571 3.097-3.097 4.181-1.054 10.593-1.611 15.486-3.098 7.465-2.26 14.836-3.902 21.681-6.194 2.757-.93 8.3-1.363 12.39-3.097 5.884-2.478 7.804-8.704 15.485-12.39 6.04-2.91 6.752-.898 15.487-3.097 3.159-.774 6.783-4.15 12.389-6.194 5.234-1.92 9.787-4.77 15.486-6.195 4.8-1.208 7.65-1.208 12.389-3.097 3.066-1.239 4.956-2.013 9.292-3.097 2.911-.713 7.743-1.704 12.389-3.098 2.88-.867 5.172-2.075 9.291-3.097 3.222-.805 15.89-3.778 24.778-6.194.837-.217.217-2.943 3.098-3.098 11.8-.619 24.096-6.38 37.167-9.291 7.712-1.735 16.044-1.27 24.778-3.098 8.362-1.765 14.433-3.623 24.778-6.194 1.239-.31 3.995-3.097 3.097-3.097 2.509 0 14.278 6.04 24.778 3.097 10.469 1.177 13.225-5.358 18.584-9.292 11.676-2.385 14.804 3.779 24.778 3.097 12.76-5.327 26.76-8.393 40.264-12.389 13.349-3.933 26.512-9.849 40.264-12.389 14.712-2.694 32.83-1.238 49.556-3.097 3.066-.34 6.969-2.601 12.39-3.097 18.645-1.673 45.653-2.973 68.139-6.195 3.283-.464 6.72-2.694 12.389-3.097 16.136-1.146 35.649-2.106 52.653-6.194 7.124-1.704 16.818-3.407 30.972-3.098 3.345.062 1.952 2.88 3.098 3.098.743.155 8.827-2.664 12.389-3.098 14.123-1.734 29.145-8.3 43.361-9.291 15.486-1.084 31.22 3.81 46.459 3.097 14.557-.681 31.747-7.743 46.459-9.292 22.517-2.385 58.662-3.562 89.82-3.097 21.34.31 41.348 3.035 61.945 3.097 11.398.031 24.561-2.447 37.167-3.097 8.672-.434 35.96 4.305 40.264 0 13.597-13.597 56.184-2.788 80.529 0 4.026.465 8.393-.712 12.389 0 7.154 1.27 3.933 2.106 12.389 0 9.973-2.509 27.472 1.982 40.264 3.097 13.163 1.146 21.247.527 34.07 3.097.991.186 5.637-.712 6.194 0 6.38 7.775 27.876-.774 43.362 3.098 3.593.898 5.854 2.416 15.486 3.097 1.92.124 4.305-.465 6.195 0 2.694.681 15.393 5.018 24.778 6.194 5.11.65 5.265-3.159 9.26-3.097-1.3 0 2.354 2.912 3.129 3.097 6.318 1.58 19.481 2.2 27.844 3.098-.712 0 2.044 2.818 3.128 3.097 8.765 2.199 34.349-3.035 46.459 0 0 0 9.075 2.818 9.292 3.097 2.013 2.478-1.332 5.947 3.097 6.195 2.57.124 4.956 4.398 9.292 3.097 2.818 1.92 13.41-2.54 15.486 0 4.925 6.009 31.685 1.951 46.459 3.097 10.345.806 20.225 5.08 30.972 6.195 10.81 1.146 23.88-1.518 34.07 0 9.725 1.455 17.902 6.535 27.875 9.291 1.92.527 4.274-.495 6.195 0 8.207 2.045 28.65 9.168 43.361 12.39 7.186 1.58 14.093 1.3 21.681 3.097 5.668 1.332 12.637 4.646 18.584 6.194 13.813 3.562 27.75 5.451 40.264 9.292.433.124.99 2.57 3.097 3.097 14.62 3.655 34.751 11.12 52.653 15.486 10.5 2.571 20.225 2.912 30.973 6.195.433.124 1.022 2.57 3.097 3.097 6.535 1.642 16.601 3.438 24.778 6.195 11.212 3.778 24.871 7.402 34.07 15.486 11.274 1.394 23.167-1.89 34.07 0 .31.062.65 2.973 3.097 3.097 1.827.093 8.424 2.106 12.389 3.098 2.725.68 5.296 2.106 9.292 3.097 7.34 1.827 20.256 11.676 30.972 15.486 1.828.65 4.305-.465 6.195 0 2.725.681 5.296 2.106 9.291 3.097 14.527 3.624 38.313 13.442 58.848 18.584 2.447.62 2.354 2.911 3.097 3.097 9.664 2.633 18.553 2.044 24.778 6.195 1.425.929 2.292 2.601 3.098 3.097 2.663 1.672 6.008 1.239 9.291 3.097 1.952 1.115 4.46 5.265 6.195 6.195 6.845 3.685 18.088 5.358 27.875 9.291 2.23.898 6.443 1.549 9.292 3.098 1.796.96 4.646 5.482 6.194 6.194 5.792 2.633 12.823 3.562 18.584 6.195 1.827.836 4.677 5.544 6.194 6.194 1.704.743 4.368-.465 6.195 0 2.726.681 5.296 2.106 9.292 3.097 6.845 1.704 19.698 8.858 24.778 18.584zm-83.626 55.75c3.407-5.11 3.717-10.933 3.097-18.583-3.345-3.655-11.243-7.898-12.389-9.292-.898-1.084-8.177-2.354-9.292-3.097-8.238-5.513-17.344-5.606-27.875-3.097-6.38-6.102-16.013-11.956-21.68-15.487-.806-.495-1.673-2.168-3.098-3.097-3.717-2.478-6.287-2.787-12.389-3.097-2.385-.124-2.88-3.066-3.097-3.097-10.655-1.704-30.57 1.703-34.07 3.097-.743.31-2.26-.031-3.097 0-3.283.186-1.766 2.54-3.097 3.097-11.646 4.77-14.495 5.203-21.681 12.39-7.433 7.432-9.478 12.295-12.39 18.583-.773 1.703-3.034 4.738-3.096 6.194-.155 3.004-2.788 2.075-3.098 3.097-1.455 4.615.744 10.686 0 15.487-.216 0-2.632 1.61-3.097 3.097-.712 2.385-.093 6.783 0 9.292.372 9.663 5.854 18.304 6.195 24.778.185 3.314 2.508 1.703 3.097 3.097 3.871 9.013 7.464 17.159 12.389 24.778.31.464 2.633-.372 3.097 0 1.022.836-.836 5.11 0 6.194 1.115 1.487 5.018 1.487 6.195 3.098 2.446 3.407 3.84 8.083 6.194 12.389.217.433 2.695-.341 3.097 0 .899.743-.526 5.08 0 6.194.186.372 2.726-.31 3.098 0 .805.65-.341 5.11 0 6.195.093.31 2.818-.248 3.097 0 3.871 3.159-2.973 16.136 0 18.583-8.548 10.933-28.061 10.933-34.07-3.097-8.084-7.836 6.628-24.592-3.097-34.07-3.314-8.053-18.367-4.336-21.68-12.389-11.089-1.3-16.54-8.239-30.973-6.194-.775 8.424-4.801 12.017-6.195 15.486-.31.743.031 2.26 0 3.097-.155 3.128-2.694 1.951-3.097 3.097-2.88 8.177-2.788 19.203-6.195 27.876-.124 0-2.663 2.415-3.097 3.097-7.805 12.265-16.291 31.096-12.389 43.361 6.566 12.018 29.3 7.867 37.167 18.584 12.792 3.221 12.017-10.097 18.584-9.292 1.92.248 6.876 9.726 12.389 15.486 1.486 1.549 1.765 4.553 3.097 6.195.836 1.022 5.11-.867 6.194 0 5.885 4.739 8.301 12.017 15.487 12.389 3.097.155 1.982 2.725 3.097 3.097 6.659 2.261 17.871 3.221 24.778 3.097 5.327-.093 16.044-1.053 21.68-3.097.31-.124-.247-2.787 0-3.097.744-.898 5.08.526 6.195 0 .372-.186-.31-2.726 0-3.097.805-.96 5.049.681 6.195 0 1.27-.775 1.765-5.204 3.097-6.195 2.85-2.137 6.814-.898 9.292-3.097 8.176-7.279 19.946-27.101 21.68-34.07.992-3.995 2.416-6.566 3.098-9.292 10.004-40.016-7.031-65.506-21.681-86.723-3.128-4.522-9.168-9.818-9.292-12.389-.31-6.101-9.013-7.154-9.292-12.389-.185-3.5-2.199-1.455-3.097-3.097-5.11-9.199-6.659-15.58-3.097-24.778 4.274.124 6.814-1.456 9.292-3.097 20.287-.65 19.388 19.822 21.68 37.167 18.677.96 25.398 13.845 46.46 12.389 1.889-12.575 10.685-18.212 9.291-34.07 6.35-5.76 9.85-17.871 12.389-21.68zm-133.182-92.917c.434-1.673.124-4.46 0-6.195-.217-2.85-1.858-5.884-3.097-9.291-3.004-8.27-11.739-18.212-18.584-18.584-2.632-.124-2.57-2.973-3.097-3.097-8.703-1.859-19.884 2.663-21.68 3.097-8.642 2.168-10.903 4.987-15.487 12.389-8.115 13.101-5.854 17.19-3.097 30.973 2.416.68 3.593 2.601 3.097 6.194 7.372 1.92 14.433 4.15 15.486 12.39-1.58 12.884-20.999 7.897-21.68 21.68 9.446 9.137 20.039 4.274 24.778 3.097 6.535-1.641 5.853-1.982 9.291-6.194.806-.992 5.08.712 6.195 0 3.562-2.292 21.495-24.53 21.68-27.876.156-3.22 2.602-1.827 3.098-3.097 1.363-3.5-.743-8.672 0-12.389.062-.31 2.57-.991 3.097-3.097zm-102.21 65.042c9.943-22.083 17.748-46.273 21.682-74.334-27.535-6.535-51.446-16.694-80.529-21.68-5.947 8.517-7.278 21.618-9.292 34.069-7 6.411-9.663 17.159-12.389 27.875-.929 8.146 12.018 2.447 9.292 12.39-12.823 3.716-13.442 19.605-27.875 21.68-2.106-12.358-7.836-21.061-6.195-37.167 7.186.991 11.894-.496 15.487-3.097 2.88-21.898 16.043-33.512 15.486-58.848-10.097-8.363-24.128-8.239-37.167-12.389-16.787-5.327-33.11-14.99-52.653-12.389-5.359 22.517-14.093 41.658-15.487 68.14-.093 9.384 15.58 3.004 15.487 12.389 5.048 17.034 9.353 32.892 12.389 49.556.898 5.017 3.376 14.804 3.097 18.583-.558 7.464-7 15.053-9.292 21.68-3.128 9.107-3.686 16.51-6.194 24.779-9.757 1.548-12.11-6.752-18.584 0-7.898 17.902-16.384 35.247-15.486 61.945 27.72 12.544 60.954 19.574 92.917 27.875 6.597-7.805 12.018-17.81 15.487-27.875 2.973-8.641 2.57-15.61 6.194-18.584 3.872-3.159-2.973-16.136 0-18.583-.96-7.279-14.68-1.828-12.389-12.39.124-3.096-.155-6.194 0-9.29.155-2.943 2.819-2.169 3.097-3.098 1.425-4.8 1.363-12.42 3.098-15.486 1.3-2.292 7.31-4.213 9.291-6.195 8.084-8.084 14.898-18.924 21.681-24.778 1.146-.991 4.8.62 6.195 0 .836-.372 2.168-5.42 3.097-6.194 9.385-7.805 19.358-13.566 27.875-18.584h21.68zm-195.126-58.848c1.425-16.601-5.668-27.256-6.194-37.167-.31-5.699-5.947-7.929-6.195-12.389-.31-5.699-6.752-7.216-9.292-9.291-1.053-.868.96-5.204 0-6.195-1.517-1.61-7.619-1.827-9.291-3.097-2.261-1.735-3.47-4.336-6.195-6.195-5.018-3.438-10.407-6.752-15.486-9.291-6.876-3.438-18.955-8.61-21.681-9.292-3.995-.991-6.566-2.416-9.292-3.097-3.995-.992-6.566-2.416-9.291-3.098-20.535-5.141-37.91-9.137-55.751-12.389-10.283-1.89-21.867-4.305-27.875-3.097-1.394 28.557-11.336 48.534-15.487 74.334 3.129-.805 2.045 1.765 3.098 3.097 4.986 6.257 16.136 3.314 18.583 9.292-4.615 34.596-12.017 66.467-18.583 99.112-2.261 7.03-21.433-2.85-18.584 9.292-6.566 3.469-2.292 10.716-3.097 15.486-.527 3.066-2.54 3.624-3.097 6.195-.65 2.973.495 6.318 0 9.291-1.797 10.624-9.168 22.641-3.098 30.973 7.96 7.124 18.305 4.243 27.876 6.194.217.031-.186 2.85 0 3.098.526.65 5.265-.124 6.194 0 5.08.62 6.814.093 9.292 3.097.527.65 5.265-.124 6.194 0 5.08.62 6.814.093 9.292 3.097.713.867 5.08-.434 6.195 0 7.557 3.035 16.384 7.62 24.778 6.195 8.765-5.637 3.902-20.473 9.292-27.876 0-12.389 6.194-18.583 6.194-30.972-1.765-9.602-16.57-6.133-12.389-21.68 4.925-2.293-.712-15.177 9.292-12.39 10.345-1.115 10.561 11.274 12.389 18.584 1.858 7.402 2.044 19.388 3.097 27.875 2.354 18.955 1.734 40.233 9.292 52.653 9.446 6.783 21.897 6.597 34.07 9.292 11.521 2.54 23.29 7.774 37.167 6.194 3.778-9.632 7.216-19.636 6.194-34.07 6.69-5.698 6.504-18.273 6.195-30.972-5.359-4.986-19.141-1.487-21.681-9.292-3.562-16.074-9.57-29.64-12.39-46.458 5.638-8.828 17.005-11.894 24.779-18.584 3.438-10.871 6.938-12.203 9.292-21.68 1.641-6.505 5.575-17.717 6.194-24.779zm-232.294 139.377c3.655-20.102 6.04-41.442 6.195-65.043-7.434-3.902-18.739-3.995-24.778-9.291-1.456-19.172-11.12-30.199-15.487-46.46 7.403-6.132 21.31-11.366 21.681-18.583.186-3.562 1.982-1.393 3.097-3.097 3.81-5.916 5.792-10.902 6.195-18.583.124-2.323 3.097-2.974 3.097-3.098 1.859-13.163 1.58-31.189 0-40.264-.495-2.88-3.933-7.217-6.194-12.389-2.292-5.265-3.686-11.522-6.195-15.486-.31-.465-2.663.371-3.097 0-1.022-.836.836-5.11 0-6.195-3.81-5.048-18.057-15.455-18.584-15.486-5.698-.31-7.929-5.947-12.389-6.195-3.407-.185-1.61-2.384-3.097-3.097-5.947-2.818-15.207-4.49-21.68-6.194-8.115-2.137-13.783-4.089-15.487-6.195-.526-.65-5.265.124-6.194 0-5.08-.62-6.814-.093-9.292-3.097-.527-.65-5.265.124-6.195 0-5.08-.62-6.814-.093-9.291-3.097-.527-.65-5.266.124-6.195 0-17.159-2.075-44.786-4.398-58.848-3.098-2.787 26.141-8.827 48.968-9.291 77.432 5.544 3.747 18.026.557 21.68 6.194-.464 35.68-7.371 64.919-9.291 99.112-4.12 1.332-5.606 4.336-9.292 6.195-3.996 2.013-11.398-1.735-9.292 6.194-4.708 17.995-4.12 41.287-6.194 61.945 17.035 9.385 41.255 6.009 61.945 9.292 11.46 1.827 20.132 8.796 30.972 6.195 6.35-4.987 7.186-15.518 6.195-27.876 3.407-8.982 2.787-21.99 6.194-30.972-4.46-4.832-7.805-10.779-15.486-12.39.124-10.19-1.27-21.928 9.292-21.68 11.738-1.425 10.19 12.017 12.389 18.584 5.327 15.981 8.796 43.888 12.389 55.75 1.517 5.049-.31 6.504 3.097 9.292 2.447 2.013 1.115 9.756 3.097 12.389 22.672 5.203 46.242 9.508 74.334 9.292zM1530.09 227.806c5.791-24.127 2.044-57.825 3.097-86.723-52.684-5.11-108.559-7.061-164.154-9.292-.155 3.965-3.965 4.275-3.098 9.292 2.757 26.172-10.406 43.455-3.097 65.043 5.358 4.986 19.141 1.486 21.68 9.291-.928 33.14-7.247 60.892-6.194 96.015-4.429.743-5.234 5.11-9.291 6.195-5.483.712-15.518-3.129-12.39 6.194-4.552 19.203-4.707 42.773-6.194 65.042 17.345 3.438 40.078 4.987 52.653 6.195 6.907.65 14.774-.682 21.681 0 4.863.495 10.84 2.88 15.486 3.097 15.146.712 29.362-.495 43.362 0 14.588.527 27.813 8.146 40.264 0 6.009-10.004 1.982-23.663 3.097-37.167 1.425-17.159 7.279-34.906 3.098-46.459-14.526-5.11-36.207-3.004-52.654-6.194-.681 4.429-5.172 5.203-6.194 9.292-2.416 9.663 3.748 20.534-9.292 18.583-19.605-.96-5.513-18.583-9.292-37.167 7.31-4.057 21.402-1.3 27.876-6.194-2.323-18.863 4.955-28.093 3.097-46.46-8.146-5.265-26.544-.309-34.07-6.194 8.58-6.907-3.964-34.937 9.292-37.167 3.593 2.602 8.3 4.089 15.486 3.098v21.68c18.522 6.97 34.07-1.486 55.75 0zm-204.419-24.778c5.172-5.141 22.61 1.952 21.68-9.291-1.703-21 3.625-49.061-3.096-65.043h-139.377c-3.097 0-3.685 2.509-6.194 3.097-4.43 17.81-5.513 53.614 0 71.237 15.083 11.367 32.985.898 55.75 3.098 10.748 15.3 3.903 40.264 3.098 61.945-.496 13.039 4.645 17.034 0 21.68-3.098 3.098.464 9.478-3.098 12.39-3.964 3.251.217 13.256-6.194 12.388-2.85 5.42-9.695 6.845-18.584 6.195-2.323-11.615 11.832-6.752 12.39-15.486 11.335-12.606 3.623-24.252 3.097-34.07-.186-3.562-2.014-1.394-3.098-3.097-5.637-8.766-8.982-11.894-18.583-12.39-2.54-.123-2.695-3.035-3.097-3.097-16.788-3.159-40.73 5.7-49.557 15.487-3.5 3.871-4.831 10.344-6.194 12.389-2.044 3.066-2.044 5.079-3.097 9.291-4.46 17.81-1.549 42.185 3.097 55.75 6.752 19.7 12.76 24.872 24.778 34.07 5.451 4.182 6.938 4.832 12.389 6.195 4.677 1.177 5.637 2.726 12.389 3.097 2.478.124 2.757 3.036 3.097 3.098 16.447 2.911 49.866-.744 55.75-3.098 7.093-2.818 12.854-3.283 18.584-6.194 10.686-5.451 18.274-13.04 21.681-18.584 1.58-2.601 5.11-4.212 6.195-6.194 3.778-6.907 3.84-15.703 6.194-24.778.062-.279 2.85.248 3.097 0 1.487-1.487-.402-10.16 0-12.39 6.164-35.4-2.85-72.103-3.097-117.695zm-182.738 40.265c1.58-6.598 1.92-28.34 0-40.265 0-.062-2.601-1.177-3.097-3.097-1.734-7-3.376-10.19-9.292-15.486-9.942-8.92-21.835-13.907-40.264-9.292-.867.217-4.956 5.513-6.195 6.195-3.592 1.92-6.875.247-9.291 3.097-.899 1.053 1.053 5.327 0 6.194-10.903 8.92-7.279 30.508 3.097 34.07-1.518 9.787 15.362 1.146 12.389 12.389-14.96 12.42-39.955 10.53-61.945 15.486-7.588 1.704-13.969 4.336-15.486 6.195-.744.898-5.08-.527-6.195 0-.371.186.31 2.725 0 3.097-.836 1.022-5.08-.774-6.194 0-6.69 4.739-13.319 16.199-15.487 21.68-6.72 16.943-2.818 41.411 21.681 40.265 8.487-5.172-5.327-14.898 6.195-18.583 2.818-7.496 12.45-8.208 21.68-9.292.341 5.854 10.252 2.137 9.292 9.292 3.779 26.884-20.473 37.043-37.167 37.167-15.765.092-39.242-12.513-43.361-30.973-1.456-6.504-2.354-20.132 0-27.875.247-.867 5.358-5.11 6.194-6.195 2.416-3.128 3.84-6.194 6.195-9.291 4.119-5.173 17.561-1.023 21.68-6.195 2.602-12.885 7.991-22.982 6.195-40.264-14.093.96-28.464-5.08-27.875-18.584.31-7.03 4.026-15.238 15.486-15.486 16.26.248 12.11 20.937 27.875 21.68 15.548.063 28.588-2.384 40.264-6.194-6.814-17.964.341-49.896-6.194-68.14-16.26-1.796-23.446 5.452-40.264 3.098-5.11.062-1.735 8.58-6.195 9.292-17.097-14.248-39.707-7.124-55.75-3.098-2.323.589-2.385 2.85-3.098 3.098-4.336 1.548-8.827.62-12.389 3.097-4.336 3.004-15.393 16.725-15.486 18.583-.186 3.253-2.54 1.766-3.097 3.098-1.394 3.407.65 8.765 0 12.389-.093 0-2.602 1.455-3.097 3.097-.713 2.385-.093 6.783 0 9.292.495 14.371 7.247 24.282 15.486 37.167-23.818 19.977-42.185 37.384-43.362 74.334-.154 5.141 2.416 10.035 3.098 15.486 1.486 12.11-.775 15.424 3.097 18.584.867.712-.434 5.08 0 6.194 2.199 5.513 4.181 9.137 6.194 12.39 1.487 2.446 6.071 6.658 6.195 9.29.217 4.213 17.283 20.69 18.583 21.682 1.301.96 4.708-.682 6.195 0 2.292 1.022 2.23 5.977 6.194 6.194 3.407.186 1.611 2.385 3.098 3.097 7 3.314 13.04 4.275 21.68 6.195 18.615 4.12 48.039 2.633 61.945 0 2.912-.558 6.319.155 9.292 0 2.819-.155 2.323-2.88 3.097-3.097 15.58-4.058 27.225-7.093 34.07-15.487.836-1.022 5.08.775 6.195 0 3.685-2.57 7.402-8.083 9.291-9.291 2.169-1.394 4.491-1.332 6.195-3.098 2.385-2.447 1.022-6.318 3.097-9.291 1.766-2.54 7.588-3.5 9.292-6.195 1.61-2.54 2.137-7.186 3.097-9.292 2.85-6.163 8.363-19.853 9.292-27.875 2.075-17.995-1.796-28.897-6.195-40.264 9.912-11.77 22.487-19.296 27.876-30.973.774-1.703 3.035-4.739 3.097-6.194.155-2.726 2.942-2.447 3.097-3.097zm-281.85 173.446c3.129-10.84-1.146-24.345-3.097-37.167-2.137-13.969-5.265-27.132-6.194-40.265-6.04-7.123-19.947 5.947-27.876-3.097-4.119-33.048-11.429-62.905-15.486-96.015 9.354-1.982 17.871-4.831 18.584-15.486-6.97-17.81-6.164-43.392-12.39-61.945-19.047-2.57-36.67 5.916-52.653 9.292-11.119 2.354-26.884 4.955-30.972 6.194-2.85.867-6.411-.712-9.292 0-4.894 1.208-7.99 2.695-12.389 6.195-3.469 26.202 11.8 33.605 9.292 58.848 7.433 8.765 18.738-4.275 24.778 3.097-.65 13.132 11.088 30.043 3.097 37.167-.867-7.867-9.199-14.433-15.486-21.681-5.606-6.473-12.265-11.677-18.584-18.583-2.85-3.098-6.287-5.545-9.291-9.292-2.664-3.345-3.16-8.734-6.195-12.39-2.106-2.57-6.628-6.132-9.292-9.291-3.097-3.717-6.814-10.19-9.291-12.389-1.952-1.734-7.372-1.796-9.292-3.097-4.027-2.757-2.261-5.08-9.292-6.195-4.274-.681-9.26 1.642-15.486 3.098-9.106 2.137-16.509 3.654-18.584 6.194-.526.65-5.265-.124-6.194 0-12.42 1.487-17.066 1.765-24.778 6.195-1.92 29.795 7.929 47.821 9.292 74.334 3.22 7.092 22.114-1.456 24.778 6.194 8.207 28.96 14.65 59.653 18.583 92.918-2.757 7.588-17.283 3.345-15.486 15.486 3.252 23.6 5.482 48.193 15.486 65.042 33.234-7.03 69.193-11.336 99.112-21.68-.495-27.38-11.212-44.54-15.486-68.14-7.65.402-14.929.464-18.584-3.097 1.673-12.204-9.446-29.61-3.097-34.07 4.398 3.159 7.867 4.305 12.39 9.292 3.592 3.964 5.512 11.274 9.29 15.486 5.762 6.442 15.115 10.964 18.584 15.486 1.859 2.416 1.053 6.876 3.098 9.292 2.818 3.314 9.167 5.42 12.389 9.292 1.95 2.323 1.424 7.092 3.097 9.291 3.469 4.553 10.035 6.783 12.389 9.292 2.106 2.261.991 6.907 3.097 9.292 14.31 16.167 26.296 7.216 46.459 3.097 9.942-2.013 21.154-.062 30.972-6.194zM628.79 466.295c2.54-11.274-2.385-25.057-3.098-27.876-1.115-4.429-1.177-6.256-3.097-9.291-8.982-14.093-3.872-35.743-15.486-49.556-17.933 4.77-36.486 8.95-52.654 15.486 1.116 17.035 7.434 30.167-12.389 30.972-8.114-7.371-7.712-23.26-12.389-34.07 6.164-4.15 14.743-5.915 21.681-9.291 1.115-20.752-6.504-32.738-9.292-49.556-16.756-3.345-18.46 8.393-34.07 6.194 1.023-13.101-18.397-40.605 6.195-40.264 12.544-.155 3.655 21.123 18.584 18.584 16.508-5.173 33.202-10.16 46.459-18.584-6.814-28.309-14.031-56.153-24.779-80.528-9.663-1.828-17.065 1.238-18.583 3.097-.62.774-5.141-.31-6.195 0-11.335 3.19-18.335 6.411-27.875 9.292-12.08 3.623-32.924 7.216-37.167 12.389-.62.774-5.141-.31-6.194 0-3.903 1.115-6.566 2.322-9.292 3.097-14.34 4.057-26.636 4.46-40.264 9.292-6.288 2.23-10.097 4.645-15.487 9.291 6.164 22.734 10.376 47.45 18.584 68.14 10.159 5.048 11.831-.713 24.778 0 7.712 33.605 19.265 63.339 24.778 99.112-2.757 7.588-17.283 3.345-15.486 15.486 3.345 22.455 11.336 40.295 15.486 61.945 8.424 4.553 17.933-2.168 21.68-3.097 4.12-1.022 6.412-2.23 9.292-3.097 4.646-1.394 9.478-2.385 12.39-3.098 1.95-.495 4.274.496 6.194 0 26.605-6.968 50.61-14.835 74.334-21.68 15.115-4.337 29.424-7.372 43.362-12.39zm-192.03 3.097c.124-9.973-4.584-23.818-6.195-27.875-.31-.744.031-2.261 0-3.098-.185-3.283-2.54-1.765-3.097-3.097-1.796-4.398-.588-8.61-3.097-12.389-1.61-2.447-7.124-4.026-9.292-6.194-6.132-6.133-8.827-9.54-15.486-12.39-8.208-3.53-24.128-5.048-27.875-9.291 6.194-16.818 1.734-39.583 0-46.459-1.115-4.429-1.177-6.256-3.098-9.292-2.23-3.469-4.026-5.915-6.194-9.291-4.027-6.319-7.372-8.982-12.39-12.39-3.344-2.291-3.716-3.159-6.194-6.194-1.115-1.363-10.344-3.004-12.389-3.097-3.097-.155-1.95-2.695-3.097-3.097-13.442-4.677-51.29-6.164-58.848 3.097-.681.836-5.11-.403-6.194 0-7.248 2.725-18.026 8.362-21.68 9.292-3.841.96-4.12.557-6.195 3.097-2.107 2.57-13.566 2.447-15.487 3.097-8.393 2.85-18.15 8.425-21.68 9.292-3.996.99-6.567 2.416-9.292 3.097-1.828.465-4.46-.712-6.195 0-1.424.589-4.49 5.265-6.194 6.195-3.252 1.734-7.588 0-9.292 3.097-.434 31.406 13.628 48.317 21.68 71.237 12.762 2.446 15.89-4.77 27.876-3.098 4.212 16.416 11.181 38.747 15.486 49.556 2.51 6.257 4.553 13.907 6.195 18.584 2.911 8.239 8.703 15.083 6.194 24.778-3.84 3.81-11.645 8.393-12.389 9.292-.867 1.053-5.234-.96-6.194 0-1.549 1.548.588 6.783-3.097 6.194 2.54 24.283 12.172 41.503 18.583 61.945 7.991.403 37.539.93 43.362-6.194.681-.837 5.11.402 6.194 0 7.248-2.726 18.026-8.394 21.68-9.292 3.841-.96 4.12-.558 6.195-3.097.682-.837 5.11.402 6.195 0 7.247-2.726 18.026-8.394 21.68-9.292 3.841-.96 4.12-.558 6.195-3.097.217-.248 9.292-3.098 9.292-3.098 3.995-.99 6.566-2.415 9.292-3.097 3.995-.991 6.566-2.416 9.291-3.097 1.735-.434 4.615.805 6.195 0 1.61-.805 4.398-5.08 6.194-6.195 2.664-1.641 6.567-1.084 9.292-3.097 4.43-3.283 7.217-9.85 9.292-12.389.867-1.053 5.234.991 6.194 0s-.588-4.894 0-6.194c.465-1.022 5.42-1.92 6.195-3.098 1.58-2.446 2.168-7.247 3.097-9.291.775-1.704 3.036-4.77 3.097-6.195.155-3.035 2.757-2.075 3.098-3.097 1.177-3.655-.558-8.58 0-12.39.681-4.614 3.004-5.605 3.097-12.388z"/><path d="M836.273 35.777c-.495 0 1.859-2.757 3.129-3.098 8.176-2.044 24.809-1.424 37.167-3.097 2.663-.371 5.11-2.54 9.291-3.097 58.848-7.774 127.545-13.597 195.127-18.584 27.937-2.075 57.702-1.734 86.723-3.097 5.018-.248 5.266-2.602 9.292-3.097 31.87-3.84 70.215 0 105.307 0 71.794 0 137.27 1.239 204.418 6.194 33.822 2.51 67.458 2.85 99.112 6.195 3.097.34 6.876 2.695 12.39 3.097 54.046 3.872 118.16 12.947 173.445 21.68 78.701 12.42 147.213 26.544 219.905 43.362 7.279 1.673 14 4.491 21.68 6.195 6.598 1.456 14.96 1.363 21.682 3.097.774.186.278 2.943 3.097 3.097.836.031 2.354-.31 3.097 0 13.287 5.297 38.313 10.531 55.75 15.487 6.784 1.92 6.38.836 15.487 3.097 3.964.991 12.203 3.84 21.68 6.194 2.726.682 5.297 2.107 9.292 3.098 2.726.681 5.297 2.106 9.292 3.097 2.912.712 7.743 1.703 12.39 3.097 2.88.867 5.172 2.075 9.29 3.097 2.479.62 2.324 2.88 3.098 3.098 7 1.951 14.867.99 21.68 3.097.992.31.125 2.942 3.098 3.097.836.031 2.354-.31 3.097 0 3.067 1.24 4.956 2.013 9.292 3.097 2.726.682 5.296 2.107 9.292 3.098 2.725.681 5.296 2.106 9.292 3.097 9.973 2.509 29.362 10.778 43.361 15.486 13.411 4.491 27.535 7.681 40.264 12.39 1.208.464-.062 2.942 3.098 3.097.836.03 2.354-.31 3.097 0 3.066 1.238 4.956 2.013 9.292 3.097 3.469.867 13.41 6.287 21.68 9.292 6.474 2.353 15.3 3.623 21.681 6.194.93.372.589 2.478 3.097 3.097 1.828.465 4.491-.743 6.195 0 1.796.775 4.739 5.606 6.194 6.195 5.11 2.044 8.456 1.548 12.39 3.097 4.955 1.982 10.747 3.097 18.583 6.195.93.371.62 2.477 3.097 3.097 4.801 1.208 7.65 1.208 12.39 3.097 2.942 1.177 6.906 3.934 12.388 6.195 5.575 2.291 13.256 3.902 18.584 6.194 1.394.589-.217 2.911 3.097 3.097 4.77.248 20.473 10.53 27.875 12.39 6.474 1.61 10.035 3.685 15.487 6.194 4.583 2.106 11.552 2.416 18.583 6.194 1.982 1.084 4.46 5.266 6.195 6.195 5.822 3.128 9.57 2.26 15.486 6.194 5.017 3.345 9.911 8.053 15.486 15.487-.62 7.65-2.354 15.92-6.194 21.68-.744 1.115-2.014 8.394-3.098 9.292-2.54 2.075-2.137 2.354-3.097 6.195 0 0-2.85 9.075-3.097 9.291-.372.31-2.912-.371-3.097 0-.527 1.115.898 5.451 0 6.195-.372.31-2.912-.372-3.098 0-.526 1.115.898 5.451 0 6.194-1.672 1.394-6.566 9.044-9.291 15.487-.465 1.115.867 5.482 0 6.194-.372.31-2.912-.372-3.098 0-.526 1.115.898 5.451 0 6.195-8.176 6.69-14.712 29.423-21.68 43.361-5.297 10.593-12.142 26.42-18.584 40.264-2.354 5.08-9.013 13.319-9.292 18.584-.03.867-2.199 7.31-3.097 9.292-2.323 5.11-9.013 13.287-9.292 18.583-.03.867-2.199 7.31-3.097 9.292-.681 1.487-5.854 5.08-6.195 6.194-.805 2.695 1.146 6.721 0 9.292-.929 2.106-5.203 4.43-6.194 6.195-.62 1.146.96 5.42 0 6.194-2.973 2.416-9.292 13.907-12.389 21.68-.434 1.116.867 5.483 0 6.195-3.872 3.16-11.274 18.739-15.486 27.876-8.332 18.119-14.774 34.007-24.778 55.75-2.354 5.11-9.013 13.287-9.292 18.584-.248 4.429-4.8 6.814-6.195 12.389-1.455 5.792-3.128 12.079-6.194 18.583-.712 1.487-2.911-.31-3.097 3.097-.031.713.34 2.51 0 3.098-1.115 2.013-5.204 4.429-6.195 6.194-.62 1.146.96 5.42 0 6.195-5.885 4.831-15.765 13.906-33.915 9.322.806 0-3.345-3.187-3.252-3.128-1.115-.743-8.393-2.013-9.292-3.097-2.292-2.819-5.606-4.8-9.291-6.195-1.084-.402-5.513.837-6.195 0-.279-.34.372-2.942 0-3.097-1.115-.495-5.482.867-6.194 0-.31-.371.371-2.911 0-3.097-1.115-.527-5.451.898-6.195 0-2.292-2.819-5.606-4.8-9.292-6.195-1.084-.402-5.513.837-6.194 0-.279-.34.372-2.942 0-3.097-1.115-.495-5.482.867-6.195 0-.31-.371.372-2.911 0-3.097-1.115-.527-5.45.898-6.194 0-2.075-2.54-2.354-2.137-6.195-3.097 0 0-9.075-2.819-9.291-3.098-1.177-1.424-13.164-7.929-18.584-9.291-6.132-1.518-9.23-4.615-15.486-6.195-6.133-1.517-9.23-4.615-15.486-6.194-10.252-2.571-21.867-7.774-34.07-12.39-1.084-.402-5.513.837-6.195 0-.247-.309.31-2.973 0-3.097-8.548-3.097-14.99-2.942-24.778-6.194-1.084-.372-.03-2.942-3.097-3.097-4.925-.248-17.19-6.443-24.778-9.292-1.084-.403-5.513.836-6.194 0-4.46-5.42-17.097-5.699-27.876-9.292-1.084-.371-.03-2.942-3.097-3.097-1.177-.062-13.814-1.053-15.486-3.097-3.376-4.12-16.601-6.009-24.778-9.292-1.115-.434-5.482.867-6.195 0-2.725-3.314-16.942-7.155-24.778-9.292-1.022-.279-5.575.744-6.194 0-3.066-3.748-16.075-5.823-24.778-9.292-1.115-.433-5.482.868-6.195 0-3.623-4.429-22.734-6.287-34.07-9.291-.185-.062-1.207-2.633-3.097-3.098-12.358-3.097-29.578-5.884-46.458-9.291-.465-.093-.496-2.974-3.098-3.098-14.402-.743-29.424-5.544-46.459-9.291-5.76-1.27-12.574-1.89-18.583-3.098-.465-.093-.496-2.973-3.097-3.097-9.509-.495-11.088-.991-21.681-3.097-.991-.186-5.637.712-6.195 0-2.477-3.004-4.212-2.478-9.291-3.097-.93-.124-5.668.65-6.195 0-4.243-5.204-14.495 1.889-18.583-3.098-2.478-3.004-4.213-2.477-9.292-3.097-.93-.124-5.668.65-6.195 0-4.243-5.203-14.495 1.89-18.583-3.097-4.243-5.203-14.495 1.89-18.584-3.097-3.902-4.77-24.53-4.337-37.167-6.195-2.787-.403-4.955-2.633-9.291-3.097-7.186-.743-16.013-1.951-24.778-3.097-102.334-13.504-221.67-21.681-343.795-21.681-272.93 0-497.109 37.88-715.465 102.21-69.967 20.627-139.903 44.197-207.516 71.236-1.115.434-5.482-.867-6.195 0-2.292 2.818-5.606 4.8-9.291 6.194-1.084.403-5.513-.836-6.195 0-.248.31.31 2.974 0 3.098-5.327 1.951-10.53 1.053-15.486 3.097-1.549.65-5.049 5.854-6.195 6.194-2.756.837-6.659-1.084-9.291 0-1.363.558.185 2.912-3.098 3.098-4.429.247-6.814 4.8-12.389 6.194-5.791 1.456-12.079 3.128-18.583 6.195-1.487.712.31 2.911-3.097 3.097-.806.03-2.385-.31-3.098 0-20.658 9.013-43.919 24.778-58.847 21.68-9.819-2.043-14.898-9.88-21.681-21.68-1.92-3.314-1.518-6.256-3.097-9.292-9.509-18.49-25.831-56.308-34.07-74.334-2.261-4.924-3.779-10.22-6.195-15.486-.681-1.487-5.853-5.08-6.194-6.195-.805-2.663 1.177-6.783 0-9.291-.96-2.106-5.204-4.43-6.195-6.195-.62-1.146.96-5.42 0-6.194-.371-.31-2.88.402-3.097 0-.588-1.146.93-5.42 0-6.195-.372-.31-2.911.372-3.097 0-.527-1.115.898-5.451 0-6.194-2.819-2.292-4.8-5.606-6.195-9.292-.402-1.084.837-5.513 0-6.195-.34-.278-2.942.372-3.097 0-.495-1.115.867-5.482 0-6.194-.372-.31-2.911.372-3.097 0-.527-1.115.898-5.451 0-6.195-2.974-2.415-9.292-13.906-12.39-21.68-.433-1.115.868-5.482 0-6.195-3.87-3.16-16.26-24.747-18.583-34.07-1.455-5.791-3.128-12.079-6.194-18.583-.713-1.487-2.912.31-3.097-3.097-.031-.775.31-2.385 0-3.098-.682-1.517-5.854-5.08-6.195-6.194-.836-2.726 1.084-6.66 0-9.292-.557-1.363-2.911.186-3.097-3.097-.031-.867-2.2-7.31-3.097-9.292-.96-2.106-5.204-4.429-6.195-6.194-.62-1.146.96-5.42 0-6.195-.34-.279-2.942.372-3.097 0-2.23-5.11-.93-10.778-3.097-15.486-.96-2.106-5.204-4.43-6.195-6.195-.62-1.146.96-5.42 0-6.194-5.513-4.522-9.973-19.915-15.486-30.973-5.08-10.159-13.566-27.875-18.584-40.264-2.942-7.248-4.924-10.871-6.194-15.486-.713-2.57-2.788-3.066-3.097-6.195-.713-7.154 6.906-17.53 12.389-21.68 3.066-2.323 13.039-7.898 18.583-9.292 1.827-.465 4.491.743 6.195 0 1.982-.836 4.583-5.42 6.194-6.195 9.044-4.305 22.052-7.464 34.07-12.389 1.548-.65 5.048-5.854 6.194-6.194 2.726-.836 6.69 1.115 9.292 0 1.549-.65 5.049-5.854 6.195-6.195 2.694-.805 6.72 1.146 9.291 0 2.106-.929 4.43-5.203 6.195-6.194 1.146-.62 5.42.96 6.194 0 2.075-2.54 2.354-2.137 6.195-3.097 5.451-1.363 18.986-8.859 27.875-12.39 72.662-28.897 156.845-58.785 235.391-83.625 12.203-3.872 24.84-5.73 37.167-9.292.34-.093 1.084-2.602 3.097-3.097 5.854-1.456 8.177-1.983 12.39-3.098 14.216-3.81 29.919-7.712 46.458-12.389 1.053-.31 5.575.775 6.195 0 3.685-4.522 18.026-6.504 27.875-9.291 1.053-.31 5.575.774 6.194 0 3.098-3.779 21.093-6.505 30.973-9.292 1.053-.31 5.575.774 6.195 0 2.291-2.788 11.955-4.243 21.68-6.195 2.943-.588 4.832-2.632 9.292-3.097 13.008-1.363 29.672-5.668 46.459-9.292 10.407-2.23 15.672-3.747 27.875-6.194.991-.186 5.637.712 6.195 0 .185-.217-.217-3.066 0-3.097 6.813-1.363 14.835-1.766 21.68-3.098 6.38-1.238 12.203-1.92 18.584-3.097 17.84-3.252 31.809-6.566 49.556-9.292 1.982-.31 4.274.496 6.194 0 3.376-.836 6.288-1.796 15.487-3.097.929-.124 5.668.65 6.194 0 3.872-4.739 27.318-4.305 40.233-6.194zm1681.839 281.85c.836-1.797 5.482-3.903 3.097-9.292-7.186-5.204-13.194-11.584-24.778-12.39-27.627-17.375-61.697-25.242-92.918-40.263-1.641-.775-4.8-3.036-6.194-3.098-6.876-.371-4.305-5.76-12.389-6.194-3.376-.186-1.642-2.447-3.097-3.097-4.584-2.107-7.805-1.332-12.39-3.098-13.07-5.048-24.468-11.738-37.166-15.486-8.951-2.633-18.863-2.942-27.876-6.194-5.791-2.107-9.508-6.38-15.486-9.292-6.225-3.036-12.791-3.407-18.583-6.195-9.633-4.646-20.969-12.73-27.876-15.486-6.256-2.509-8.331-2.726-15.486-3.097-2.602-.124-2.602-3.005-3.097-3.097-17.128-3.531-34.999-2.385-52.653-6.195-12.11-2.602-24.314-8.92-37.167-12.389-8.549-2.323-21.805-5.451-24.778-6.195-8.642-2.168-12.204-.743-18.584-3.097-1.3-.464-4.615-5.358-6.194-6.194-3.067-1.642-6.845-1.952-9.292-3.098-5.265-2.446-9.416-5.45-12.39-6.194-3.995-.991-6.565-2.416-9.29-3.097-3.996-.991-6.567-2.416-9.293-3.098-3.995-.99-6.566-2.415-9.291-3.097-4.337-1.084-6.226-1.858-9.292-3.097-.744-.31-2.261.031-3.097 0-2.664-.124-2.54-2.973-3.098-3.097-12.389-2.695-27.627-.062-40.264-3.098-9.044-2.168-22.858-10.375-27.875-12.389-6.257-2.508-14.433-4.522-21.681-6.194-32.057-7.402-68.883-4.708-102.21-9.292-7.092-.96-13.627-4.739-21.68-6.194-17.81-3.221-34.039-2.726-49.556-6.195-7.464-1.672-14.402-5.482-21.68-6.194-19.359-1.92-39.15 1.424-58.849 0-5.76-.434-6.937-2.385-12.389-3.098-10.654-1.393-15.424.744-18.583-3.097-.527-.65-5.265.124-6.195 0-32.861-3.933-58.29-12.668-86.723-15.486-11.428-1.146-22.176 1.363-34.07 0-11.49-1.3-22.547-8.425-34.07-9.292-4.676-.371-6.318 2.57-9.29 3.097-13.753 2.416-28.093.527-40.265 0-26.822-1.177-50.733-3.685-77.431-3.097-5.545.124-10.84 3.097-15.487 3.097-5.792 0-12.11-3.004-18.583-3.097-27.814-.464-57.33-2.787-80.529 0-4.026.496-4.274 2.85-9.291 3.097-26.575 1.24-52.003 1.023-77.432 3.098-40.543 3.314-80.56 4.46-114.598 6.194-10.345.527-21.433-.681-27.875 0-4.12.434-6.783 2.912-9.292 3.097-30.694 2.385-68.821.65-89.82 6.195-12.173 3.221-26.296 5.637-37.167 6.194-2.447.124-2.788 3.036-3.098 3.098-20.256 3.5-49.834 5.637-61.945 9.291-2.57.775-6.597-.123-9.291 0-9.85.465-15.765 2.261-18.584 3.098-5.048 1.517-6.504-.31-9.292 3.097-.712.867-5.08-.434-6.194 0-11.15 4.46-23.415 4.305-37.167 6.194-10.004 1.363-18.181 4.368-27.875 6.195-35.867 6.721-72.693 14.247-108.404 21.68-13.473 2.82-23.292 5.638-34.07 6.195-2.664.155-2.509 2.974-3.097 3.097-15.982 3.531-30.663 3.098-46.459 6.195-9.385 1.827-27.968 8.548-30.973 9.292-4.336 1.084-6.225 1.858-9.291 3.097-.744.31-2.261-.031-3.098 0-3.19.155-1.858 2.633-3.097 3.097-6.597 2.447-14.619 3.47-21.68 6.195-13.505 5.203-25.925 12.389-40.265 15.486-11.49 2.478-31.375 4.739-37.167 6.195-1.827.464-4.49-.744-6.194 0-1.487.65-4.398 5.296-6.195 6.194-3.438 1.673-6.597 1.734-9.292 3.097-2.787 1.425-.99 2.819-6.194 3.098-3.221.154-1.796 2.601-3.097 3.097-6.66 2.632-14.557.588-21.681 3.097-4.027 1.425-3.407 4.43-6.195 6.195-3.747 2.384-8.3 1.548-12.389 3.097-1.3.495-.185 2.385-3.097 3.097-3.995.991-6.566 2.416-9.292 3.097-3.995.991-6.566 2.416-9.291 3.098-23.106 5.791-39.397 8.145-55.75 18.583-8.735.186-16.912-.496-27.876 3.097-1.146.372-4.739 5.42-6.195 6.195-7.805 4.212-12.636 3.004-18.583 6.194-1.735.93-4.15 5.204-6.195 6.195-5.141 2.54-13.504 3.871-18.583 6.194-1.58.713-4.274 5.359-6.195 6.195-7.619 3.345-13.535 1.827-18.583 3.097-2.726.681-1.89 2.54-3.097 3.097-5.266 2.447-9.416 5.451-12.39 6.195-4.336 1.084-6.225 1.858-9.291 3.097-4.739 1.89-7.588 1.89-12.39 3.097-2.477.62-2.167 2.726-3.096 3.098-12.7 5.017-17.717 5.11-21.681 18.583-3.407 11.584 2.663 19.234 6.194 24.778 2.664 4.181 6.04 9.663 6.195 12.39.248 4.955 8.3 17.034 9.292 18.583 5.42 8.486 6.008 21.494 6.194 34.07 8.208 5.079 17.097 18.893 18.584 24.777.433 1.704-.806 4.677 0 6.195.929 1.734 5.11 4.181 6.194 6.194 1.796 3.345 1.549 6.597 3.097 9.292 3.47 6.04 6.628 9.106 9.292 15.486.712 1.735-.465 4.367 0 6.195 1.394 5.575 4.553 11.088 6.195 15.486 3.995 10.686 6.875 15.146 9.291 24.778.991 3.965 6.009 5.513 6.195 9.292.279 5.358 7.526 8.61 9.292 12.389 2.106 4.553 1.022 7.99 3.097 12.389.743 1.61 2.292-.062 3.097 3.097 1.084 4.336 1.858 6.226 3.097 9.292 2.602 6.535 3.996 10.716 6.195 15.486.774 1.704 3.035 4.77 3.097 6.195.186 3.345 2.447 1.672 3.097 3.097 3.005 6.72 3.345 15.3 6.195 21.68.03.094 2.509 2.169 3.097 3.098 4.15 6.504 5.42 10.964 9.292 15.486-3.252 11.739 9.385 20.256 12.389 24.778.712 1.084 3.035 5.235 3.097 6.195.186 3.5 2.23 1.486 3.097 3.097 3.81 7 2.912 15.889 6.195 21.68.898 1.58 4.832 4.647 6.194 6.195 3.593 4.12 2.633 4.522 9.292 6.195 8.425 2.106 24.159-4.336 27.875-6.195 2.88-1.425 4.182-5.296 6.195-6.194 6.69-3.036 12.172-3.036 18.583-6.195 1.642-.805 4.306-5.172 6.195-6.194 2.911-1.58 7-2.137 9.292-3.098 7.092-2.973 12.017-4.8 15.486-6.194 6.225-2.478 13.938-4.615 18.583-6.195 6.412-2.199 13.195-4.738 15.487-6.194 1.889-1.208 4.336-2.354 6.194-3.097 7.557-2.974 11.987-4.801 15.486-6.195.744-.31 2.261.031 3.098 0 3.283-.186 1.765-2.54 3.097-3.097 20.256-8.3 38.685-11.49 58.848-18.584 13.287-4.676 31.344-14.866 43.361-15.486 3.005-.155 2.106-2.787 3.097-3.097 7.96-2.478 17.19-3.996 24.778-6.195 17.53-5.11 34.504-8.021 49.556-12.389 8.177-2.354 11.74-4.676 15.487-6.194.743-.31 2.26.03 3.097 0 3.097-.155 1.951-2.695 3.097-3.097 8.61-3.005 17.345-4.058 24.778-6.195.31-.093-.248-2.85 0-3.097 1.58-1.58 10.066.526 12.39 0 .247-.062-.218-2.88 0-3.097 1.64-1.642 10.003.62 12.388 0 .279-.062-.248-2.85 0-3.098 1.549-1.548 10.097.496 12.39 0 5.543-1.146 13.38-5.358 15.486-6.194.743-.31 2.26.03 3.097 0 3.22-.155 1.796-2.602 3.097-3.097 4.46-1.766 12.575 1.641 12.389-6.195 8.796-.217 16.168.279 21.68 0 2.417-.124 2.85-3.066 3.098-3.097 25.119-4.088 56.71-11.088 74.334-15.486 1.951-.496 4.243.433 6.195 0 10.128-2.2 17.034-4.646 21.68-9.292 2.323-2.323 8.332 3.283 9.292 3.097 7-1.394 15.022-4.955 21.68-6.194 8.456-1.58 15.89-1.89 24.779-3.098 31.778-4.336 65.724-7.712 96.015-9.291 2.292-.124 3.004-3.098 3.097-3.098 12.853-1.734 26.265-1.827 37.167-3.097 3.004-.34 1.92-2.664 3.097-3.097 2.85-1.084 5.854 3.128 6.195 3.097 2.508-.186 2.694-3.004 3.097-3.097 3.283-.65 6.473 3.407 12.389 3.097 1.951-.093 3.438-3.128 3.097-3.097 18.12-1.208 34.132 1.3 40.264-6.195 1.456-1.796 12.947.527 15.487 0 9.26-1.92 18.46-5.45 27.875-6.194 8.486-.65 15.548 3.221 24.778 3.097-1.053 0 2.106-2.787 3.097-3.097 2.57-.774 6.597.124 9.292 0 17.066-.805 27.256-3.345 40.264-3.097 4.12.093 6.07 2.85 12.39 3.097 12.79.526 13.1-3.934 24.777-3.097 11.15.805 9.478 2.911 12.39 0 1.27-1.27 10.406.093 12.388 0 44.6-2.137 81.334-2.943 120.793 0 14.743 1.084 26.482 1.27 34.07 3.097 13.008 3.128 12.637.557 21.68 0 1.766-.124 4.492-.434 6.195 0 8.703 2.168 20.163 2.23 30.973 3.097 16.322 1.332 33.698 5.451 49.556 6.195 13.318.62 18.521-4.337 27.875-3.098 2.199.28 2.88 3.067 3.097 3.098 2.416.495 3.345-3.098 3.097-3.098 3.129.124 3.624 2.51 6.195 3.098 8.146 1.92 16.601-.527 21.68 0 4.244.433 6.598 2.787 9.292 3.097 13.102 1.58 36.765 1.92 40.265 6.194.526.65 5.265-.124 6.194 0 16.57 2.354 35.092.589 43.362 3.098 11.15 3.376 18.552 3.964 27.875 6.194 6.04 1.456 12.637 1.332 18.583 3.097 7.403 2.23 11.336 4.863 18.584 6.195 19.203 3.5 39.366 2.633 58.848 6.194 0 .062 1.424 2.571 3.097 3.098 2.818.867 6.411-.62 9.292 0 12.482 2.601 35.68 10.066 43.361 12.389 5.266 1.58 8.796 1.672 12.39 3.097.743.31 2.26-.031 3.097 0 2.601.124 2.601 3.004 3.097 3.097 9.663 1.982 20.627 1.177 30.972 3.097 20.101 3.748 45.654 10.221 58.848 15.487.743.31 2.261-.031 3.097 0 3.283.185 1.766 2.54 3.098 3.097 4.77 1.951 7.619 1.58 12.389 3.097 10.964 3.47 26.45 7.495 30.972 9.292.743.31 2.261-.031 3.097 0 2.974.155 2.137 2.787 3.098 3.097 7.743 2.354 18.676 2.788 24.778 3.097 2.942.155 2.168 2.819 3.097 3.098 7.743 2.26 15.95 5.141 18.583 6.194 6.102 2.447 14.03 4.832 18.584 6.195 8.517 2.57 18.862 3.128 27.875 6.194.465.155 1.3 2.385 3.097 3.097.744.31 2.261-.03 3.098 0 3.097.155 1.95 2.695 3.097 3.098 5.358 1.858 10.035.774 15.486 3.097 0 .03 2.261 2.57 3.097 3.097 5.73 3.655 9.23 5.854 15.487 6.195 3.097.155 1.95 2.694 3.097 3.097 11.831 4.12 30.26 4.615 34.07 9.292.712.867 5.08-.434 6.194 0 6.814 2.725 12.451 4.646 18.584 6.194 2.323.589 2.385 2.85 3.097 3.097 9.54 3.407 21.37 5.359 30.972 9.292.341.155-.278 2.757 0 3.097.899 1.084 8.177 2.354 9.292 3.098 5.978 3.995 16.044 3.376 21.68 6.194 1.673.836 3.842 4.832 6.195 6.195 6.783 3.933 11.12 6.008 15.487 9.291 14.68 10.965 32.366 16.509 49.556 21.681 11.119-12.141 15.579-39.954 24.778-49.556 2.354-2.447 5.234-5.482 6.194-9.292 1.115-4.429 1.177-6.256 3.097-9.291 5.049-7.93 9.2-16.044 12.39-24.778 2.601-7.155 2.88-15.022 6.194-21.681.774-1.58 5.048-4.46 6.194-6.195.713-1.084 3.036-5.234 3.098-6.194.186-3.562 1.982-1.394 3.097-3.097 4.057-6.319 4.646-15.487 12.389-18.584.155-4.12-.217-8.27 0-12.389.155-2.725 2.942-2.478 3.097-3.097.682-2.943-.681-6.35 0-9.292.93-3.964 5.235-3.686 6.195-6.194 1.022-2.695-.837-6.505 0-9.292.34-1.115 5.513-4.708 6.194-6.195 6.164-13.473 13.69-36.826 21.681-43.361.836-.682-.403-5.11 0-6.195 1.394-3.685 3.376-7 6.194-9.291.96-.775-.619-5.049 0-6.195.992-1.765 5.266-4.088 6.195-6.194 2.044-4.522 1.084-10.872 3.097-15.487.155-.371 2.757.28 3.097 0 .96-.774-.619-5.048 0-6.194.992-1.766 5.173-4.12 6.195-6.195 2.075-4.243 3.779-10.685 6.194-15.486 1.766-3.469 5.297-5.699 6.195-9.292.96-3.84.558-4.119 3.097-6.194 1.084-.898 2.354-8.177 3.098-9.292 4.15-6.225 3.004-13.504 6.194-21.68.124-.341 2.788.247 3.097 0 .248-.217 3.098-9.292 3.098-9.292.96-3.841.557-4.12 3.097-6.195.898-.743-.527-5.08 0-6.194z"/><path d="M1669.434 85.333c-8.363-.898-21.526-1.518-27.844-3.098-.775-.185-4.43-3.097-3.129-3.097-3.995-.062-4.15 3.748-9.26 3.097-9.385-1.176-22.084-5.513-24.778-6.194-1.89-.465-4.275.124-6.195 0-9.632-.681-11.893-2.2-15.486-3.097-15.486-3.872-36.981 4.677-43.362-3.098-.557-.712-5.203.186-6.194 0-12.823-2.57-20.907-1.95-34.07-3.097-12.792-1.115-30.291-5.606-40.264-3.097-8.456 2.106-5.235 1.27-12.39 0-3.995-.712-8.362.465-12.388 0-24.345-2.788-66.932-13.597-80.529 0-4.305 4.305-31.592-.434-40.264 0-12.606.65-25.77 3.128-37.167 3.097-20.597-.062-40.605-2.787-61.945-3.097-31.158-.465-67.303.712-89.82 3.097-14.712 1.549-31.902 8.61-46.459 9.292-15.239.712-30.973-4.181-46.459-3.097-14.216.99-29.238 7.557-43.361 9.291-3.562.434-11.646 3.253-12.39 3.098-1.145-.217.248-3.036-3.097-3.098-14.154-.31-23.848 1.394-30.972 3.098-17.004 4.088-36.517 5.048-52.653 6.194-5.668.403-9.106 2.633-12.39 3.097-22.485 3.222-49.493 4.522-68.139 6.195-5.42.496-9.323 2.757-12.389 3.097-16.725 1.859-34.844.403-49.556 3.097-13.752 2.54-26.915 8.456-40.264 12.39-13.504 3.995-27.504 7.061-40.264 12.388-9.974.682-13.102-5.482-24.778-3.097-5.359 3.934-8.115 10.469-18.584 9.292-10.5 2.942-22.27-3.097-24.778-3.097.898 0-1.858 2.787-3.097 3.097-10.345 2.57-16.416 4.43-24.778 6.194-8.734 1.828-17.066 1.363-24.778 3.098-13.07 2.911-25.367 8.672-37.167 9.291-2.88.155-2.261 2.88-3.098 3.098-8.889 2.416-21.556 5.389-24.778 6.194-4.119 1.022-6.41 2.23-9.291 3.097-4.646 1.394-9.478 2.385-12.39 3.098-4.335 1.084-6.225 1.858-9.291 3.097-4.739 1.89-7.588 1.89-12.389 3.097-5.699 1.425-10.252 4.274-15.486 6.195-5.606 2.044-9.23 5.42-12.39 6.194-8.734 2.2-9.446.186-15.486 3.098-7.68 3.685-9.601 9.91-15.486 12.389-4.088 1.734-9.632 2.168-12.389 3.097-6.845 2.292-14.216 3.933-21.68 6.194-4.894 1.487-11.306 2.044-15.487 3.098-2.106.526-2.633 2.942-3.097 3.097-13.411 4.181-27.968 8.641-40.264 9.292-2.664.154-2.51 2.973-3.098 3.097-8.114 1.796-17.034.62-24.778 3.097-.99.31-.433 2.447-3.097 3.097-4.429 1.115-6.256 1.177-9.292 3.098-5.946 3.778-15.114 7.898-18.583 9.291-4.739 1.89-7.588 1.89-12.39 3.098-4.676 1.176-5.636 2.756-12.388 3.097-3.035.155-2.075 2.756-3.097 3.097-5.11 1.642-7.434 1.58-12.39 3.097-3.685 1.146-7.495 1.177-12.388 3.098-1.394.526-4.522 5.327-6.195 6.194-4.367 2.23-8.022 1.115-12.389 3.097-6.938 3.129-12.915 6.412-18.583 9.292-1.735.898.185 2.261-3.098 3.097-4.15 1.022-6.783.682-9.291 3.098-2.85 2.725-5.792 3.964-9.292 6.194-6.504 4.15-10.964 5.42-15.486 9.292-9.137 2.23-19.172 3.53-24.778 9.292 3.5 17.158 7.03 34.255 18.583 43.361 3.562 29.61 17.376 54.852 30.973 80.529 3.716 7.03 5.172 9.013 9.291 12.389.96.805-.681 5.048 0 6.194 1.053 1.827 4.987 4.15 6.195 6.195.898 1.548-.744 4.553 0 6.194.495 1.146 5.513 1.735 6.194 3.097 3.005 5.947 3.5 15.208 6.195 21.681.62 1.487 5.39 4.367 6.194 6.195 1.859 4.212 1.952 9.415 3.098 12.389 6.163 15.981 13.318 36.268 18.583 49.556 1.518 3.81.991 7.495 3.097 12.389.65 1.486 5.297 4.429 6.195 6.194 2.23 4.367 1.053 8.053 3.097 12.39.743 1.61 5.234 4.304 6.195 6.194 2.23 4.367 1.053 8.053 3.097 12.389.743 1.61 5.327 4.243 6.194 6.194 2.137 4.863 1.053 8.796 3.098 12.39.99 1.765 4.924 4.304 6.194 6.194.712 1.084 3.035 5.234 3.097 6.194.186 3.593 1.89 1.363 3.098 3.097 4.305 6.195 7.526 13.66 12.389 18.584 6.845 1.084 13.38-3.376 18.583-6.195 1.735-.929 4.243-5.048 6.195-6.194 3.995-2.323 7.247-.774 12.389-3.097 1.58-.713 4.274-5.359 6.194-6.195 7.495-3.221 9.602-1.641 15.486-3.097 5.575-1.394 11.027-4.646 15.487-6.195 31.623-11.088 67.427-23.322 96.014-34.07 7.093-2.663 8.766-5.853 15.487-6.194 3.066-.155 2.013-2.725 3.097-3.097 7.217-2.385 15.27-1.27 21.68-3.097.806-.248.59-2.478 3.098-3.098 4.336-1.084 6.225-1.858 9.292-3.097.743-.31 2.26.031 3.097 0 3.128-.155 1.951-2.694 3.097-3.097 32.119-11.274 68.852-20.318 99.112-27.875 8.89-2.23 12.08-5.7 21.681-6.195 2.88-.155 2.261-2.88 3.097-3.097 7.031-1.92 14.867-1.332 21.681-3.097 3.5-.899 5.234-1.704 9.292-3.098 4.088-1.424 6.938-1.27 12.389-3.097 1.239-.433 4.553-5.482 6.194-6.194 7.496-3.222 9.602-1.642 15.487-3.098 5.234-1.3 11.583-5.017 15.486-6.194 12.884-3.872 28.897-8.703 40.264-9.292 2.664-.124 2.509-2.973 3.097-3.097 6.412-1.425 14.372-1.827 21.681-3.097 16.323-2.85 39.366-6.752 49.556-9.292 1.951-.496 4.212.34 6.195 0 19.512-3.283 38.84-5.885 58.847-9.292 10.81-1.827 23.85-5.172 27.876-6.194 1.889-.465 4.243.154 6.194 0 10.035-.837 15.3-2.261 18.584-3.098 1.858-.464 4.429.713 6.194 0 3.47-1.362 3.81-5.08 6.195-6.194 6.318-2.943 13.349-4.491 21.68-6.195 2.974-.62 6.319.65 9.292 0 2.726-.588 3.934-2.911 6.195-3.097 13.659-1.115 26.605 3.221 40.264 3.097 3.84-.03 6.411-2.57 12.389-3.097 36.393-3.252 68.263-3.19 102.21-6.194 38.994-3.438 78.112-2.88 117.695-3.098 48.503-.247 101.775-3.964 145.57 0 31.964 2.912 59.87.775 92.918 3.098 11.77.836 25.274 5.141 37.167 6.194 3.097.279 3.686-2.756 6.195-3.097 4.615-.62 6.442 2.85 9.291 3.097 4.894.434 10.748-1.177 15.487 0 1.146.279 3.81 3.097 3.128 3.097 13.442 1.549 26.172 1.394 40.233 3.098 12.978 1.58 26.76 5.853 40.264 6.194 17.438.434 35-4.77 52.654-3.097 10.159.96 29.052 6.101 34.07 9.292 7.247 4.615 19.79 4.212 30.972 6.194 3.933.712 4.491 2.385 9.292 3.097 11.955 1.735 18.335 2.23 24.778 3.098 4.057.526 8.331-.496 12.389 0 10.437 1.27 24.685 5.389 27.875 6.194 9.385 2.354 11.924 1.518 18.583 3.097 20.473 4.894 39.49 14.465 58.848 15.487 2.726.154 2.447 2.942 3.098 3.097 7.743 1.827 16.88 1.146 24.778 3.097 7.836 1.951 20.658 8.27 24.778 9.292 1.92.495 4.274-.527 6.194 0 17.407 4.832 43.423 15.517 55.75 18.583 1.952.496 4.213-.34 6.195 0 13.411 2.261 21.495 5.452 30.973 9.292 6.968 2.819 8.858 5.854 15.486 6.195 3.035.155 2.044 2.756 3.097 3.097 15.239 4.925 31.375 4.8 46.459 9.292 19.977 5.915 45.437 20.658 61.945 24.778 9.477 2.354 17.716 5.203 21.68 6.194 1.92.496 4.275-.526 6.195 0 5.761 1.58 9.199 5.39 12.39 6.195 4.428 1.115 6.256 1.177 9.29 3.097 4.182 2.664 6.32 1.58 12.39 3.097 5.73 1.425 10.345 3.872 15.486 6.195 4.058 1.827 11.708 5.544 12.39 6.194 2.818 2.726 5.853 3.903 9.29 6.195 5.545 3.685 9.014.774 15.487 3.097 1.332.465 4.522 5.451 6.195 6.194 4.522 1.983 9.106 1.58 12.389 3.098 1.58.743 4.336 5.234 6.194 6.194 4.367 2.23 8.115.96 12.39 3.097 1.64.806 4.273 5.204 6.194 6.195 4.367 2.23 7.96 1.27 12.389 3.097 6.969-10.004 11.212-27.132 15.486-34.07 1.487-2.446 6.07-6.659 6.194-9.291.186-3.5 2.2-1.456 3.098-3.098 1.765-3.159 1.208-5.73 3.097-9.291.65-1.24 5.358-1.673 6.194-3.098.837-1.393-.402-4.584 0-6.194 1.456-5.792 4.832-10.066 6.195-15.486 1.734-6.97 5.854-11.336 9.292-18.584 2.199-4.646 3.685-10.345 6.194-15.486 4.584-9.447 10.593-18.553 15.486-27.875 3.531-6.721 7.217-13.783 9.292-15.487.248-.216 3.097-9.291 3.097-9.291.96-3.841.558-4.12 3.098-6.195.96-.774-.62-5.048 0-6.194.99-1.766 5.08-4.182 6.194-6.195.34-.588-.03-2.416 0-3.097.186-3.5 2.2-1.456 3.097-3.097 4.615-8.301 4.894-24.283 9.292-27.876.279-.216 3.097-9.291 3.097-9.291.96-3.841.558-4.12 3.098-6.195.898-.743-.527-5.08 0-6.194.186-.372 2.725.31 3.097 0 .96-.775-.65-5.049 0-6.195.248-.434 2.695.34 3.097 0 1.022-.836-.774-5.08 0-6.194 1.673-2.416 4.491-3.005 6.195-6.195 1.982-3.717 3.933-5.916 6.194-9.292 3.686-5.544 3.036-14.247 6.195-21.68 8.517-20.07 22.145-36.3 24.778-58.848-5.08-9.726-17.933-16.88-24.778-18.584-3.996-.99-6.566-2.416-9.292-3.097-1.827-.465-4.491.743-6.195 0-1.517-.65-4.367-5.358-6.194-6.194-5.76-2.633-12.792-3.562-18.584-6.195-1.548-.712-4.398-5.234-6.194-6.194-2.85-1.55-7.062-2.2-9.292-3.098-9.787-3.933-21.03-5.606-27.875-9.291-1.735-.93-4.243-5.08-6.195-6.195-3.283-1.858-6.628-1.425-9.291-3.097-.806-.496-1.673-2.168-3.098-3.097-6.225-4.15-15.114-3.562-24.778-6.195-.743-.186-.65-2.478-3.097-3.097-20.535-5.142-44.321-14.96-58.848-18.584-3.995-.99-6.566-2.416-9.291-3.097-1.89-.465-4.367.65-6.195 0-10.716-3.81-23.632-13.659-30.972-15.486-3.996-.991-6.567-2.416-9.292-3.097-3.965-.992-10.562-3.005-12.39-3.098-2.446-.124-2.787-3.035-3.096-3.097-10.903-1.89-22.796 1.394-34.07 0-9.199-8.084-22.858-11.708-34.07-15.486-8.177-2.757-18.243-4.553-24.778-6.195-2.075-.526-2.664-2.973-3.097-3.097-10.748-3.283-20.473-3.624-30.973-6.195-17.902-4.367-38.034-11.831-52.653-15.486-2.106-.526-2.664-2.973-3.097-3.097-12.513-3.84-26.45-5.73-40.264-9.292-5.947-1.548-12.916-4.862-18.584-6.194-7.588-1.797-14.495-1.518-21.68-3.098-14.713-3.22-35.155-10.344-43.362-12.389-1.92-.495-4.274.527-6.195 0-9.973-2.756-18.15-7.836-27.875-9.291-10.19-1.518-23.26 1.146-34.07 0-10.747-1.115-20.627-5.39-30.972-6.195-14.774-1.146-41.534 2.912-46.459-3.097-2.075-2.54-12.668 1.92-15.486 0-4.336 1.3-6.721-2.973-9.292-3.097-4.43-.248-1.084-3.717-3.097-6.195-.217-.279-9.292-3.097-9.292-3.097-12.11-3.035-37.694 2.199-46.459 0-1.084-.279-3.84-3.097-3.128-3.097zm851.775 223.002c2.385 5.389-2.261 7.495-3.097 9.292-.527 1.115.898 5.45 0 6.194-2.54 2.075-2.137 2.354-3.097 6.195 0 0-2.85 9.075-3.098 9.291-.31.248-2.973-.34-3.097 0-3.19 8.177-2.044 15.456-6.194 21.681-.744 1.115-2.014 8.394-3.098 9.292-2.54 2.075-2.137 2.354-3.097 6.194-.898 3.593-4.43 5.823-6.195 9.292-2.415 4.8-4.119 11.243-6.194 15.486-1.022 2.075-5.203 4.43-6.195 6.195-.619 1.146.96 5.42 0 6.194-.34.28-2.942-.371-3.097 0-2.013 4.615-1.053 10.965-3.097 15.487-.93 2.106-5.203 4.429-6.195 6.194-.619 1.146.96 5.42 0 6.195-2.818 2.292-4.8 5.606-6.194 9.291-.403 1.084.836 5.513 0 6.195-7.99 6.535-15.517 29.888-21.68 43.361-.682 1.487-5.855 5.08-6.195 6.195-.837 2.787 1.022 6.597 0 9.292-.96 2.508-5.266 2.23-6.195 6.194-.681 2.943.682 6.35 0 9.292-.155.62-2.942.372-3.097 3.097-.217 4.12.155 8.27 0 12.39-7.743 3.096-8.332 12.264-12.389 18.583-1.115 1.703-2.911-.465-3.097 3.097-.062.96-2.385 5.11-3.098 6.194-1.146 1.735-5.42 4.615-6.194 6.195-3.314 6.659-3.593 14.526-6.195 21.68-3.19 8.735-7.34 16.85-12.389 24.779-1.92 3.035-1.982 4.862-3.097 9.291-.96 3.81-3.84 6.845-6.194 9.292-9.2 9.602-13.66 37.415-24.778 49.556-17.19-5.172-34.875-10.716-49.556-21.68-4.367-3.284-8.704-5.359-15.487-9.292-2.353-1.363-4.522-5.359-6.194-6.195-5.637-2.818-15.703-2.199-21.68-6.194-1.116-.744-8.394-2.014-9.293-3.098-.278-.34.341-2.942 0-3.097-9.601-3.933-21.433-5.885-30.972-9.292-.712-.247-.774-2.508-3.097-3.097-6.133-1.548-11.77-3.469-18.584-6.194-1.115-.434-5.482.867-6.194 0-3.81-4.677-22.239-5.173-34.07-9.292-1.146-.403 0-2.942-3.097-3.097-6.257-.341-9.757-2.54-15.487-6.195-.836-.526-3.097-3.066-3.097-3.097-5.451-2.323-10.128-1.239-15.486-3.097-1.146-.403 0-2.943-3.097-3.098-.837-.03-2.354.31-3.098 0-1.796-.712-2.632-2.942-3.097-3.097-9.013-3.066-19.358-3.624-27.875-6.194-4.553-1.363-12.482-3.748-18.584-6.195-2.632-1.053-10.84-3.933-18.583-6.194-.93-.28-.155-2.943-3.097-3.098-6.102-.31-17.035-.743-24.778-3.097-.96-.31-.124-2.942-3.098-3.097-.836-.031-2.354.31-3.097 0-4.522-1.797-20.008-5.823-30.972-9.292-4.77-1.518-7.62-1.146-12.39-3.097-1.331-.558.186-2.912-3.097-3.097-.836-.031-2.354.31-3.097 0-13.194-5.266-38.747-11.739-58.848-15.487-10.345-1.92-21.309-1.115-30.972-3.097-.496-.093-.496-2.973-3.097-3.097-.837-.031-2.354.31-3.098 0-3.593-1.425-7.123-1.518-12.389-3.097-7.68-2.323-30.88-9.788-43.361-12.39-2.88-.619-6.474.868-9.292 0-1.673-.526-3.097-3.035-3.097-3.097-19.482-3.561-39.645-2.694-58.848-6.194-7.248-1.332-11.181-3.965-18.584-6.195-5.946-1.765-12.543-1.641-18.583-3.097-9.323-2.23-16.725-2.818-27.875-6.194-8.27-2.51-26.792-.744-43.362-3.098-.929-.124-5.668.65-6.194 0-3.5-4.274-27.163-4.615-40.265-6.194-2.694-.31-5.048-2.664-9.291-3.097-5.08-.527-13.535 1.92-21.681 0-2.57-.589-3.066-2.974-6.195-3.098.248 0-.681 3.593-3.097 3.098-.217-.031-.898-2.819-3.097-3.098-9.354-1.239-14.557 3.717-27.875 3.098-15.858-.744-33.234-4.863-49.556-6.195-10.81-.867-22.27-.93-30.973-3.097-1.703-.434-4.429-.124-6.194 0-9.044.557-8.673 3.128-21.681 0-7.588-1.828-19.327-2.013-34.07-3.097-39.459-2.943-76.192-2.137-120.793 0-1.982.093-11.119-1.27-12.389 0-2.911 2.911-1.239.805-12.389 0-11.676-.837-11.986 3.623-24.778 3.097-6.318-.248-8.27-3.004-12.389-3.097-13.008-.248-23.198 2.292-40.264 3.097-2.695.124-6.721-.774-9.292 0-.99.31-4.15 3.097-3.097 3.097-9.23.124-16.292-3.748-24.778-3.097-9.416.743-18.615 4.274-27.875 6.194-2.54.527-14.03-1.796-15.487 0-6.132 7.496-22.145 4.987-40.264 6.195.34-.031-1.146 3.004-3.097 3.097-5.916.31-9.106-3.748-12.39-3.097-.402.093-.588 2.911-3.096 3.097-.341.031-3.345-4.181-6.195-3.097-1.177.433-.093 2.756-3.097 3.097-10.902 1.27-24.314 1.363-37.167 3.097-.093 0-.805 2.974-3.097 3.098-30.291 1.58-64.237 4.955-96.015 9.291-8.89 1.208-16.323 1.518-24.778 3.098-6.66 1.239-14.681 4.8-21.68 6.194-.961.186-6.97-5.42-9.293-3.097-4.646 4.646-11.552 7.093-21.68 9.292-1.952.433-4.244-.496-6.195 0-17.623 4.398-49.215 11.398-74.334 15.486-.248.03-.681 2.973-3.097 3.097-5.513.279-12.885-.217-21.681 0 .186 7.836-7.929 4.43-12.389 6.195-1.3.495.124 2.942-3.097 3.097-.836.03-2.354-.31-3.097 0-2.107.836-9.943 5.048-15.487 6.194-2.292.496-10.84-1.548-12.389 0-.248.248.279 3.036 0 3.098-2.385.62-10.747-1.642-12.389 0-.217.216.248 3.035 0 3.097-2.323.526-10.81-1.58-12.389 0-.248.248.31 3.004 0 3.097-7.433 2.137-16.167 3.19-24.778 6.195-1.146.402 0 2.942-3.097 3.097-.836.03-2.354-.31-3.097 0-3.748 1.518-7.31 3.84-15.487 6.194-15.052 4.368-32.025 7.279-49.556 12.39-7.588 2.198-16.818 3.716-24.778 6.194-.99.31-.092 2.942-3.097 3.097-12.017.62-30.074 10.81-43.361 15.486-20.163 7.093-38.592 10.283-58.848 18.584-1.332.557.186 2.911-3.097 3.097-.837.031-2.354-.31-3.098 0-3.5 1.394-7.929 3.221-15.486 6.195-1.858.743-4.305 1.889-6.194 3.097-2.292 1.456-9.075 3.995-15.487 6.194-4.645 1.58-12.358 3.717-18.583 6.195-3.469 1.394-8.394 3.221-15.486 6.194-2.292.96-6.38 1.518-9.292 3.098-1.89 1.022-4.553 5.389-6.195 6.194-6.41 3.16-11.893 3.16-18.583 6.195-2.013.898-3.314 4.77-6.195 6.194-3.716 1.859-19.45 8.3-27.875 6.195-6.659-1.673-5.699-2.075-9.292-6.195-1.362-1.548-5.296-4.615-6.194-6.194-3.283-5.792-2.385-14.681-6.195-21.681-.867-1.61-2.911.403-3.097-3.097-.062-.96-2.385-5.11-3.097-6.195-3.004-4.522-15.641-13.04-12.39-24.778-3.87-4.522-5.14-8.982-9.29-15.486-.59-.93-3.067-3.004-3.098-3.097-2.85-6.38-3.19-14.96-6.195-21.681-.65-1.425-2.911.248-3.097-3.097-.062-1.425-2.323-4.491-3.097-6.195-2.2-4.77-3.593-8.95-6.195-15.486-1.239-3.066-2.013-4.956-3.097-9.292-.805-3.16-2.354-1.487-3.097-3.097-2.075-4.398-.991-7.836-3.097-12.39-1.766-3.778-9.013-7.03-9.292-12.388-.186-3.779-5.204-5.327-6.195-9.292-2.416-9.632-5.296-14.092-9.291-24.778-1.642-4.398-4.801-9.911-6.195-15.486-.465-1.828.712-4.46 0-6.195-2.664-6.38-5.823-9.446-9.292-15.486-1.548-2.695-1.3-5.947-3.097-9.292-1.084-2.013-5.265-4.46-6.194-6.194-.806-1.518.433-4.491 0-6.195-1.487-5.884-10.376-19.698-18.584-24.778-.186-12.575-.774-25.583-6.194-34.07-.992-1.548-9.044-13.627-9.292-18.583-.155-2.726-3.531-8.208-6.195-12.389-3.53-5.544-9.601-13.194-6.194-24.778 3.964-13.473 8.982-13.566 21.68-18.583.93-.372.62-2.478 3.098-3.098 4.8-1.208 7.65-1.208 12.389-3.097 3.066-1.239 4.955-2.013 9.292-3.097 2.973-.744 7.123-3.748 12.389-6.195 1.208-.557.371-2.416 3.097-3.097 5.048-1.27 10.964.248 18.583-3.097 1.92-.836 4.615-5.482 6.195-6.195 5.08-2.323 13.442-3.654 18.583-6.194 2.045-.991 4.46-5.266 6.195-6.195 5.947-3.19 10.778-1.982 18.583-6.194 1.456-.775 5.049-5.823 6.195-6.195 10.964-3.593 19.14-2.911 27.875-3.097 16.354-10.438 32.645-12.792 55.75-18.583 2.726-.682 5.297-2.107 9.292-3.098 2.726-.681 5.297-2.106 9.292-3.097 2.912-.712 1.797-2.602 3.097-3.097 4.089-1.549 8.642-.713 12.39-3.097 2.787-1.766 2.167-4.77 6.194-6.195 7.124-2.509 15.022-.465 21.68-3.097 1.302-.496-.123-2.943 3.098-3.097 5.203-.28 3.407-1.673 6.194-3.098 2.695-1.363 5.854-1.424 9.292-3.097 1.797-.898 4.708-5.544 6.195-6.194 1.703-.744 4.367.464 6.194 0 5.792-1.456 25.676-3.717 37.167-6.195 14.34-3.097 26.76-10.283 40.264-15.486 7.062-2.726 15.084-3.748 21.681-6.195 1.24-.464-.093-2.942 3.097-3.097.837-.031 2.354.31 3.098 0 3.066-1.239 4.955-2.013 9.291-3.097 3.005-.744 21.588-7.465 30.973-9.292 15.796-3.097 30.477-2.664 46.459-6.195.588-.123.433-2.942 3.097-3.097 10.778-.557 20.597-3.376 34.07-6.194 35.711-7.434 72.537-14.96 108.404-21.681 9.694-1.827 17.87-4.832 27.875-6.195 13.752-1.889 26.017-1.734 37.167-6.194 1.115-.434 5.482.867 6.194 0 2.788-3.407 4.244-1.58 9.292-3.097 2.819-.837 8.734-2.633 18.584-3.098 2.694-.123 6.72.775 9.291 0 12.11-3.654 41.69-5.791 61.945-9.291.31-.062.65-2.974 3.098-3.098 10.871-.557 24.994-2.973 37.167-6.194 20.999-5.544 59.126-3.81 89.82-6.195 2.509-.185 5.172-2.663 9.292-3.097 6.442-.681 17.53.527 27.875 0 34.039-1.734 74.055-2.88 114.598-6.194 25.429-2.075 50.857-1.859 77.432-3.098 5.017-.247 5.265-2.601 9.291-3.097 23.199-2.787 52.715-.464 80.529 0 6.473.093 12.791 3.097 18.583 3.097 4.646 0 9.942-2.973 15.487-3.097 26.698-.588 50.609 1.92 77.43 3.097 12.173.527 26.513 2.416 40.265 0 2.973-.526 4.615-3.468 9.292-3.097 11.522.867 22.579 7.991 34.07 9.292 11.893 1.363 22.64-1.146 34.07 0 28.432 2.818 53.86 11.553 86.722 15.486.93.124 5.668-.65 6.195 0 3.16 3.84 7.929 1.704 18.583 3.097 5.452.713 6.629 2.664 12.39 3.098 19.698 1.424 39.49-1.92 58.847 0 7.279.712 14.217 4.522 21.681 6.194 15.517 3.47 31.747 2.974 49.556 6.195 8.053 1.455 14.588 5.234 21.68 6.194 33.327 4.584 70.153 1.89 102.21 9.292 7.248 1.672 15.424 3.686 21.68 6.194 5.018 2.014 18.832 10.221 27.876 12.39 12.637 3.035 27.875.402 40.264 3.097.558.124.434 2.973 3.098 3.097.836.031 2.353-.31 3.097 0 3.066 1.239 4.955 2.013 9.292 3.097 2.725.682 5.296 2.106 9.291 3.097 2.726.682 5.297 2.107 9.292 3.098 2.726.681 5.296 2.106 9.292 3.097 2.973.743 7.124 3.748 12.389 6.194 2.447 1.146 6.225 1.456 9.292 3.098 1.58.836 4.893 5.73 6.194 6.194 6.38 2.354 9.942.93 18.584 3.097 2.973.744 16.23 3.872 24.778 6.195 12.853 3.469 25.056 9.787 37.167 12.389 17.654 3.81 35.525 2.664 52.653 6.195.495.092.495 2.973 3.097 3.097 7.155.371 9.23.588 15.486 3.097 6.907 2.757 18.243 10.84 27.876 15.486 5.792 2.788 12.358 3.16 18.583 6.195 5.978 2.911 9.695 7.185 15.486 9.292 9.013 3.252 18.925 3.561 27.876 6.194 12.698 3.748 24.096 10.438 37.167 15.486 4.584 1.766 7.805.991 12.389 3.098 1.455.65-.279 2.91 3.097 3.097 8.084.433 5.513 5.823 12.389 6.194 1.394.062 4.553 2.323 6.194 3.098 31.22 15.021 65.29 22.888 92.918 40.264 11.584.805 17.592 7.185 24.778 12.389z" fill="#ffad14"/><path d="M2412.805 357.89c.62 7.651.31 13.474-3.097 18.584-2.54 3.81-6.04 15.92-12.389 21.681 1.394 15.858-7.402 21.495-9.292 34.07-21.061 1.456-27.782-11.429-46.459-12.39-2.292-17.344-1.393-37.817-21.68-37.166-2.478 1.641-5.018 3.221-9.292 3.097-3.562 9.199-2.013 15.58 3.097 24.778.898 1.642 2.912-.403 3.097 3.097.28 5.235 8.982 6.288 9.292 12.39.124 2.57 6.164 7.866 9.292 12.388 14.65 21.217 31.685 46.707 21.68 86.723-.68 2.726-2.105 5.297-3.097 9.292-1.734 6.969-13.504 26.791-21.68 34.07-2.478 2.199-6.443.96-9.292 3.097-1.332.991-1.827 5.42-3.097 6.195-1.146.681-5.39-.96-6.195 0-.31.371.372 2.911 0 3.097-1.115.526-5.451-.898-6.194 0-.248.31.31 2.973 0 3.097-5.637 2.044-16.354 3.004-21.681 3.097-6.907.124-18.119-.836-24.778-3.097-1.115-.372 0-2.942-3.097-3.097-7.186-.372-9.602-7.65-15.487-12.39-1.084-.866-5.358 1.023-6.194 0-1.332-1.64-1.61-4.645-3.097-6.194-5.513-5.76-10.47-15.238-12.39-15.486-6.566-.805-5.791 12.513-18.583 9.292-7.867-10.717-30.6-6.566-37.167-18.584-3.902-12.265 4.584-31.096 12.39-43.361.433-.682 2.972-3.097 3.096-3.097 3.407-8.673 3.314-19.699 6.195-27.876.403-1.146 2.942.031 3.097-3.097.031-.836-.31-2.354 0-3.097 1.394-3.47 5.42-7.062 6.195-15.486 14.433-2.045 19.884 4.893 30.972 6.194 3.314 8.053 18.367 4.336 21.68 12.39 9.726 9.477-4.986 26.233 3.098 34.069 6.009 14.03 25.522 14.03 34.07 3.097-2.973-2.447 3.871-15.424 0-18.583-.279-.248-3.004.31-3.097 0-.341-1.084.805-5.544 0-6.195-.372-.31-2.912.372-3.098 0-.526-1.115.899-5.451 0-6.194-.402-.341-2.88.433-3.097 0-2.354-4.306-3.748-8.982-6.194-12.39-1.177-1.61-5.08-1.61-6.195-3.097-.836-1.084 1.022-5.358 0-6.194-.464-.372-2.787.464-3.097 0-4.925-7.62-8.518-15.765-12.39-24.778-.588-1.394-2.91.217-3.096-3.097-.341-6.474-5.823-15.115-6.195-24.778-.093-2.51-.712-6.907 0-9.292.465-1.487 2.88-3.097 3.097-3.097.744-4.801-1.455-10.872 0-15.487.31-1.022 2.943-.093 3.098-3.097.062-1.456 2.323-4.49 3.097-6.194 2.911-6.288 4.956-11.15 12.389-18.584 7.186-7.186 10.035-7.62 21.68-12.389 1.332-.557-.185-2.911 3.098-3.097.836-.031 2.354.31 3.097 0 3.5-1.394 23.415-4.8 34.07-3.097.217.03.712 2.973 3.097 3.097 6.102.31 8.672.62 12.39 3.097 1.424.93 2.291 2.602 3.096 3.097 5.668 3.531 15.3 9.385 21.681 15.487 10.53-2.51 19.637-2.416 27.875 3.097 1.115.743 8.394 2.013 9.292 3.097 1.146 1.394 9.044 5.637 12.39 9.292zm-136.279-80.528c.124 1.735.434 4.522 0 6.195-.526 2.106-3.035 2.787-3.097 3.097-.743 3.717 1.363 8.89 0 12.389-.496 1.27-2.942-.124-3.097 3.097-.186 3.345-18.12 25.584-21.681 27.876-1.115.712-5.39-.992-6.195 0-3.438 4.212-2.756 4.553-9.291 6.194-4.74 1.177-15.332 6.04-24.778-3.097.681-13.783 20.1-8.796 21.68-21.68-1.053-8.24-8.114-10.47-15.486-12.39.496-3.593-.681-5.513-3.097-6.194-2.757-13.783-5.018-17.872 3.097-30.973 4.584-7.402 6.845-10.22 15.486-12.389 1.797-.434 12.978-4.956 21.681-3.097.527.124.465 2.973 3.097 3.097 6.845.372 15.58 10.314 18.584 18.584 1.239 3.407 2.88 6.442 3.097 9.291zm-80.528-3.097c-3.934 28.061-11.739 52.25-21.681 74.334h-21.68c-8.518 5.018-18.491 10.779-27.876 18.584-.93.774-2.261 5.822-3.097 6.194-1.394.62-5.049-.991-6.195 0-6.783 5.854-13.597 16.694-21.68 24.778-1.983 1.982-7.992 3.903-9.292 6.195-1.735 3.066-1.673 10.685-3.098 15.486-.278.929-2.942.155-3.097 3.097-.155 3.097.124 6.195 0 9.292-2.292 10.561 11.429 5.11 12.39 12.389-2.974 2.447 3.87 15.424 0 18.583-3.625 2.974-3.222 9.943-6.195 18.584-3.47 10.066-8.89 20.07-15.487 27.875-31.963-8.3-65.197-15.331-92.917-27.875-.898-26.698 7.588-44.043 15.486-61.945 6.473-6.752 8.827 1.548 18.584 0 2.508-8.27 3.066-15.672 6.194-24.778 2.292-6.628 8.734-14.217 9.292-21.68.279-3.78-2.2-13.567-3.097-18.584-3.036-16.664-7.34-32.522-12.39-49.556.093-9.385-15.579-3.005-15.486-12.39 1.394-26.481 10.128-45.622 15.487-68.139 19.543-2.602 35.866 7.062 52.653 12.389 13.04 4.15 27.07 4.026 37.167 12.389.557 25.336-12.606 36.95-15.486 58.848-3.593 2.601-8.301 4.088-15.487 3.097-1.641 16.106 4.089 24.809 6.195 37.167 14.433-2.075 15.052-17.964 27.875-21.68 2.726-9.943-10.22-4.244-9.292-12.39 2.726-10.716 5.39-21.464 12.39-27.875 2.013-12.45 3.344-25.552 9.291-34.07 29.083 4.987 52.994 15.146 80.529 21.681zm-223.002-21.681c.526 9.911 7.619 20.566 6.194 37.167-.62 7.062-4.553 18.274-6.194 24.778-2.354 9.478-5.854 10.81-9.292 21.681-7.774 6.69-19.141 9.756-24.778 18.584 2.818 16.818 8.827 30.384 12.389 46.458 2.54 7.805 16.322 4.306 21.68 9.292.31 12.699.496 25.274-6.194 30.973 1.022 14.433-2.416 24.437-6.194 34.07-13.876 1.579-25.646-3.655-37.167-6.195-12.173-2.695-24.624-2.509-34.07-9.292-7.558-12.42-6.938-33.698-9.292-52.653-1.053-8.487-1.239-20.473-3.097-27.875-1.828-7.31-2.044-19.699-12.39-18.584-10.003-2.787-4.366 10.097-9.291 12.39-4.181 15.547 10.624 12.078 12.389 21.68 0 12.389-6.194 18.583-6.194 30.972-5.39 7.403-.527 22.239-9.292 27.876-8.394 1.424-17.221-3.16-24.778-6.195-1.115-.434-5.482.867-6.195 0-2.478-3.004-4.212-2.478-9.292-3.097-.929-.124-5.667.65-6.194 0-2.478-3.004-4.212-2.478-9.292-3.097-.929-.124-5.668.65-6.194 0-.186-.248.217-3.067 0-3.098-9.57-1.95-19.916.93-27.876-6.194-6.07-8.332 1.301-20.35 3.098-30.973.495-2.973-.65-6.318 0-9.291.557-2.571 2.57-3.129 3.097-6.195.805-4.77-3.469-12.017 3.097-15.486-2.85-12.141 16.323-2.261 18.584-9.292 6.566-32.645 13.968-64.516 18.583-99.112-2.447-5.978-13.597-3.035-18.583-9.292-1.053-1.332.03-3.902-3.098-3.097 4.15-25.8 14.093-45.777 15.487-74.334 6.008-1.208 17.592 1.208 27.875 3.097 17.84 3.252 35.216 7.248 55.75 12.39 2.726.68 5.297 2.105 9.292 3.097 2.726.68 5.297 2.106 9.292 3.097 2.726.681 14.805 5.854 21.68 9.292 5.08 2.54 10.47 5.853 15.487 9.291 2.726 1.859 3.934 4.46 6.195 6.195 1.672 1.27 7.774 1.486 9.291 3.097.96.991-1.053 5.327 0 6.195 2.54 2.075 8.982 3.592 9.292 9.291.248 4.46 5.885 6.69 6.195 12.39zm-74.334 52.654c10.19-3.686 10.53-6.721 15.486-12.39-2.478-16.105-14.402-22.764-30.973-24.777-4.46 10.004-5.915 22.981-9.291 34.07 8.331 6.565 15.145 6.565 24.778 3.097z" fill="#fff"/><path d="M1914.148 292.849c-4.956 5.668-5.297 8.703-15.486 12.389-9.633 3.468-16.447 3.468-24.778-3.098 3.376-11.088 4.831-24.065 9.291-34.07 16.57 2.014 28.495 8.673 30.973 24.779z"/><path d="M1753.09 364.085c-.154 23.601-2.539 44.941-6.194 65.043-28.092.216-51.662-4.089-74.334-9.292-1.982-2.633-.65-10.376-3.097-12.39-3.407-2.787-1.58-4.242-3.097-9.29-3.593-11.863-7.062-39.77-12.39-55.751-2.198-6.567-.65-20.009-12.388-18.584-10.562-.248-9.168 11.49-9.292 21.68 7.681 1.611 11.026 7.558 15.486 12.39-3.407 8.982-2.787 21.99-6.194 30.972.99 12.358.155 22.889-6.195 27.876-10.84 2.601-19.513-4.368-30.972-6.195-20.69-3.283-44.91.093-61.945-9.292 2.075-20.658 1.486-43.95 6.194-61.945-2.106-7.929 5.296-4.181 9.292-6.194 3.686-1.859 5.172-4.863 9.292-6.195 1.92-34.193 8.827-63.431 9.291-99.112-3.654-5.637-16.136-2.447-21.68-6.194.464-28.464 6.504-51.29 9.291-77.432 14.062-1.3 41.69 1.023 58.848 3.098.93.124 5.668-.65 6.195 0 2.477 3.004 4.212 2.478 9.291 3.097.93.124 5.668-.65 6.195 0 2.478 3.004 4.212 2.478 9.292 3.097.929.124 5.668-.65 6.194 0 1.704 2.106 7.372 4.058 15.486 6.195 6.474 1.703 15.734 3.376 21.681 6.194 1.487.713-.31 2.912 3.097 3.097 4.46.248 6.69 5.885 12.39 6.195.526.031 14.773 10.438 18.583 15.486.836 1.084-1.022 5.359 0 6.195.434.371 2.787-.465 3.097 0 2.509 3.964 3.903 10.22 6.195 15.486 2.26 5.172 5.699 9.509 6.194 12.389 1.58 9.075 1.859 27.101 0 40.264 0 .124-2.973.775-3.097 3.098-.403 7.68-2.385 12.667-6.195 18.583-1.115 1.704-2.911-.465-3.097 3.097-.371 7.217-14.278 12.451-21.68 18.584 4.367 16.26 14.03 27.287 15.486 46.459 6.04 5.296 17.344 5.389 24.778 9.291zm-108.403-99.112c21.464 9.23 41.162-4.026 37.167-21.68-2.385-10.562-16.385-14.217-30.973-15.487-3.53 10.934-3.407 25.49-6.194 37.167z" fill="#fff"/><path d="M1681.854 243.293c3.995 17.654-15.703 30.91-37.167 21.68 2.787-11.676 2.664-26.233 6.194-37.167 14.588 1.27 28.588 4.925 30.973 15.487z"/><path d="M1533.186 141.083c-1.053 28.898 2.694 62.596-3.097 86.723-21.681-1.486-37.23 6.97-55.75 0v-21.68c-7.187.99-11.894-.496-15.487-3.098-13.256 2.23-.713 30.26-9.292 37.167 7.526 5.885 25.924.93 34.07 6.195 1.858 18.366-5.42 27.596-3.097 46.459-6.474 4.893-20.566 2.137-27.876 6.194 3.779 18.584-10.313 36.207 9.292 37.167 13.04 1.951 6.876-8.92 9.292-18.583 1.022-4.089 5.513-4.863 6.194-9.292 16.447 3.19 38.128 1.084 52.654 6.194 4.18 11.553-1.673 29.3-3.098 46.46-1.115 13.503 2.912 27.162-3.097 37.166-12.45 8.146-25.676.527-40.264 0-14-.495-28.216.712-43.362 0-4.646-.217-10.623-2.602-15.486-3.097-6.907-.682-14.774.65-21.68 0-12.576-1.208-35.31-2.757-52.654-6.195 1.487-22.269 1.642-45.839 6.195-65.042-3.129-9.323 6.906-5.482 12.389-6.194 4.057-1.084 4.862-5.452 9.291-6.195-1.053-35.123 5.266-62.874 6.195-96.015-2.54-7.805-16.323-4.305-21.68-9.291-7.31-21.588 5.853-38.871 3.096-65.043-.867-5.017 2.943-5.327 3.098-9.292 55.595 2.23 111.47 4.182 164.154 9.292zm-185.836 52.654c.93 11.243-16.508 4.15-21.68 9.291.248 45.592 9.26 82.294 3.097 117.696-.402 2.23 1.487 10.902 0 12.389-.247.248-3.035-.279-3.097 0-2.354 9.075-2.416 17.871-6.194 24.778-1.084 1.982-4.615 3.593-6.195 6.194-3.407 5.544-10.995 13.133-21.68 18.584-5.73 2.911-11.492 3.376-18.584 6.194-5.885 2.354-39.304 6.009-55.75 3.098-.341-.062-.62-2.974-3.098-3.098-6.752-.371-7.712-1.92-12.389-3.097-5.451-1.363-6.938-2.013-12.389-6.194-12.017-9.2-18.026-14.372-24.778-34.07-4.646-13.566-7.557-37.942-3.097-55.75 1.053-4.213 1.053-6.226 3.097-9.292 1.363-2.045 2.695-8.518 6.194-12.39 8.828-9.787 32.77-18.645 49.557-15.486.402.062.557 2.974 3.097 3.098 9.601.495 12.946 3.623 18.583 12.389 1.084 1.703 2.912-.465 3.098 3.097.526 9.818 8.238 21.464-3.098 34.07-.557 8.734-14.712 3.871-12.389 15.486 8.89.65 15.734-.775 18.584-6.195 6.411.868 2.23-9.137 6.194-12.389 3.562-2.911 0-9.291 3.098-12.389 4.645-4.646-.496-8.641 0-21.68.805-21.681 7.65-46.645-3.098-61.945-22.765-2.2-40.667 8.27-55.75-3.098-5.513-17.623-4.43-53.427 0-71.237 2.509-.588 3.097-3.097 6.194-3.097h139.377c6.72 15.982 1.393 44.043 3.097 65.043zm-204.418 9.291c1.92 11.925 1.58 33.667 0 40.265-.155.65-2.942.371-3.097 3.097-.062 1.455-2.323 4.49-3.097 6.194-5.39 11.677-17.964 19.203-27.876 30.973 4.399 11.367 8.27 22.269 6.195 40.264-.93 8.022-6.442 21.712-9.292 27.875-.96 2.106-1.486 6.752-3.097 9.292-1.704 2.695-7.526 3.655-9.292 6.195-2.075 2.973-.712 6.844-3.097 9.291-1.704 1.766-4.026 1.704-6.195 3.098-1.889 1.208-5.606 6.72-9.291 9.291-1.115.775-5.359-1.022-6.195 0-6.845 8.394-18.49 11.43-34.07 15.487-.774.216-.278 2.942-3.097 3.097-2.973.155-6.38-.558-9.292 0-13.906 2.633-43.33 4.12-61.945 0-8.64-1.92-14.68-2.88-21.68-6.195-1.487-.712.31-2.911-3.098-3.097-3.964-.217-3.902-5.172-6.194-6.194-1.487-.682-4.894.96-6.195 0-1.3-.992-18.366-17.469-18.583-21.681-.124-2.633-4.708-6.845-6.195-9.292-2.013-3.252-3.995-6.876-6.194-12.389-.434-1.115.867-5.482 0-6.194-3.872-3.16-1.61-6.474-3.097-18.584-.682-5.451-3.252-10.345-3.098-15.486 1.177-36.95 19.544-54.357 43.362-74.334-8.239-12.885-14.99-22.796-15.486-37.167-.093-2.509-.713-6.907 0-9.292.495-1.642 3.004-3.097 3.097-3.097.65-3.624-1.394-8.982 0-12.39.557-1.331 2.911.156 3.097-3.097.093-1.858 11.15-15.579 15.486-18.583 3.562-2.478 8.053-1.549 12.39-3.097.712-.248.774-2.509 3.097-3.098 16.043-4.026 38.653-11.15 55.75 3.098 4.46-.713 1.084-9.23 6.195-9.292 16.818 2.354 24.003-4.894 40.264-3.097 6.535 18.243-.62 50.175 6.194 68.14-11.676 3.809-24.716 6.256-40.264 6.194-15.765-.744-11.615-21.433-27.875-21.681-11.46.248-15.177 8.456-15.486 15.486-.589 13.504 13.782 19.544 27.875 18.584 1.796 17.282-3.593 27.38-6.195 40.264-4.119 5.172-17.561 1.022-21.68 6.195-2.354 3.097-3.779 6.163-6.195 9.291-.836 1.084-5.947 5.328-6.194 6.195-2.354 7.743-1.456 21.37 0 27.875 4.119 18.46 27.596 31.065 43.361 30.973 16.694-.124 40.946-10.283 37.167-37.167.96-7.155-8.95-3.438-9.292-9.292-9.23 1.084-18.862 1.796-21.68 9.292-11.522 3.685 2.292 13.41-6.195 18.583-24.5 1.146-28.402-23.322-21.68-40.264 2.167-5.482 8.796-16.942 15.486-21.681 1.115-.774 5.358 1.022 6.194 0 .31-.372-.371-2.911 0-3.097 1.115-.527 5.451.898 6.195 0 1.517-1.859 7.898-4.491 15.486-6.195 21.99-4.955 46.985-3.066 61.945-15.486 2.973-11.243-13.907-2.602-12.389-12.389-10.376-3.562-14-25.15-3.097-34.07 1.053-.867-.899-5.141 0-6.194 2.416-2.85 5.699-1.177 9.291-3.097 1.24-.682 5.328-5.978 6.195-6.195 18.429-4.615 30.322.372 40.264 9.292 5.916 5.296 7.558 8.486 9.292 15.486.496 1.92 3.097 3.035 3.097 3.097zM857.985 379.572c1.951 12.822 6.226 26.326 3.097 37.167-9.818 6.132-21.03 4.18-30.972 6.194-20.163 4.12-32.15 13.07-46.459-3.097-2.106-2.385-.991-7.03-3.097-9.292-2.354-2.509-8.92-4.739-12.39-9.292-1.672-2.199-1.145-6.968-3.096-9.291-3.222-3.872-9.57-5.978-12.39-9.292-2.044-2.416-1.238-6.876-3.097-9.292-3.469-4.522-12.822-9.044-18.583-15.486-3.779-4.212-5.7-11.522-9.292-15.486-4.522-4.987-7.99-6.133-12.389-9.292-6.35 4.46 4.77 21.866 3.097 34.07 3.655 3.561 10.934 3.5 18.584 3.097 4.274 23.6 14.99 40.76 15.486 68.14-29.92 10.344-65.878 14.65-99.112 21.68-10.004-16.849-12.234-41.441-15.486-65.042-1.797-12.141 12.73-7.898 15.486-15.486-3.933-33.265-10.376-63.959-18.583-92.918-2.664-7.65-21.557.898-24.778-6.194-1.363-26.513-11.213-44.539-9.292-74.334 7.712-4.43 12.358-4.708 24.778-6.195.929-.124 5.668.65 6.194 0 2.075-2.54 9.478-4.057 18.584-6.194 6.225-1.456 11.212-3.78 15.486-3.098 7.03 1.115 5.265 3.438 9.292 6.195 1.92 1.3 7.34 1.363 9.292 3.097 2.477 2.2 6.194 8.672 9.291 12.389 2.664 3.16 7.186 6.721 9.292 9.292 3.035 3.655 3.53 9.044 6.195 12.389 3.004 3.747 6.442 6.194 9.291 9.292 6.319 6.906 12.978 12.11 18.584 18.583 6.287 7.248 14.619 13.814 15.486 21.68 7.991-7.123-3.748-24.034-3.097-37.166-6.04-7.372-17.345 5.668-24.778-3.097 2.509-25.243-12.76-32.646-9.292-58.848 4.398-3.5 7.495-4.987 12.39-6.195 2.88-.712 6.441.867 9.29 0 4.09-1.239 19.854-3.84 30.973-6.194 15.982-3.376 33.606-11.863 52.654-9.292 6.225 18.553 5.42 44.136 12.389 61.945-.713 10.655-9.23 13.504-18.584 15.486 4.057 33.11 11.367 62.967 15.486 96.015 7.93 9.044 21.836-4.026 27.876 3.097.929 13.133 4.057 26.296 6.194 40.265zM625.691 438.42c.713 2.818 5.637 16.6 3.098 27.875-13.938 5.017-28.247 8.052-43.362 12.389-23.725 6.845-47.729 14.712-74.334 21.68-1.92.496-4.243-.495-6.195 0-2.91.713-7.743 1.704-12.389 3.098-2.88.867-5.172 2.075-9.291 3.097-3.748.93-13.257 7.65-21.681 3.097-4.15-21.65-12.141-39.49-15.486-61.945-1.797-12.141 12.73-7.898 15.486-15.486-5.513-35.773-17.066-65.507-24.778-99.112-12.947-.713-14.62 5.048-24.778 0-8.208-20.69-12.42-45.406-18.584-68.14 5.39-4.646 9.2-7.061 15.487-9.291 13.628-4.832 25.924-5.235 40.264-9.292 2.726-.775 5.39-1.982 9.292-3.097 1.053-.31 5.575.774 6.194 0 4.243-5.173 25.088-8.766 37.167-12.39 9.54-2.88 16.54-6.101 27.875-9.291 1.054-.31 5.576.774 6.195 0 1.518-1.859 8.92-4.925 18.583-3.097 10.748 24.375 17.965 52.22 24.779 80.528-13.257 8.425-29.95 13.411-46.46 18.584-14.928 2.54-6.039-18.739-18.583-18.584-24.592-.34-5.172 27.163-6.194 40.264 15.61 2.2 17.313-9.54 34.07-6.194 2.787 16.818 10.406 28.804 9.291 49.556-6.938 3.376-15.517 5.141-21.68 9.292 4.676 10.809 4.274 26.698 12.388 34.07 19.823-.806 13.505-13.938 12.39-30.973 16.167-6.535 34.72-10.717 52.653-15.486 11.614 13.813 6.504 35.463 15.486 49.556 1.92 3.035 1.982 4.862 3.097 9.291zm-195.127 3.097c1.611 4.057 6.319 17.902 6.195 27.875-.093 6.783-2.416 7.774-3.097 12.389-.558 3.81 1.177 8.734 0 12.389-.341 1.022-2.943.062-3.098 3.097-.061 1.425-2.322 4.491-3.097 6.195-.929 2.044-1.517 6.845-3.097 9.291-.774 1.177-5.73 2.076-6.195 3.098-.588 1.3.96 5.203 0 6.194-.96.991-5.327-1.053-6.194 0-2.075 2.54-4.863 9.106-9.292 12.39-2.725 2.012-6.628 1.455-9.292 3.096-1.796 1.115-4.583 5.39-6.194 6.195-1.58.805-4.46-.434-6.195 0-2.725.681-5.296 2.106-9.291 3.097-2.726.682-5.297 2.106-9.292 3.097 0 0-9.075 2.85-9.292 3.098-2.075 2.54-2.354 2.137-6.194 3.097-3.655.898-14.434 6.566-21.681 9.292-1.084.402-5.513-.837-6.195 0-2.075 2.54-2.354 2.137-6.194 3.097-3.655.898-14.433 6.566-21.68 9.292-1.085.402-5.514-.837-6.195 0-5.823 7.123-35.371 6.597-43.362 6.194-6.411-20.442-16.044-37.662-18.583-61.945 3.685.589 1.548-4.646 3.097-6.194.96-.96 5.327 1.053 6.194 0 .744-.899 8.549-5.483 12.39-9.292 2.508-9.695-3.284-16.54-6.195-24.778-1.642-4.677-3.686-12.327-6.195-18.584-4.305-10.809-11.274-33.14-15.486-49.556-11.986-1.672-15.114 5.544-27.875 3.098-8.053-22.92-22.115-39.831-21.68-71.237 1.703-3.097 6.039-1.363 9.29-3.097 1.704-.93 4.77-5.606 6.195-6.195 1.735-.712 4.367.465 6.195 0 2.725-.681 5.296-2.106 9.292-3.097 3.53-.867 13.287-6.442 21.68-9.292 1.92-.65 13.38-.526 15.487-3.097 2.075-2.54 2.354-2.137 6.194-3.097 3.655-.93 14.433-6.567 21.68-9.292 1.085-.403 5.514.836 6.195 0 7.558-9.261 45.406-7.774 58.848-3.097 1.146.402 0 2.942 3.097 3.097 2.045.093 11.274 1.734 12.39 3.097 2.477 3.035 2.849 3.903 6.194 6.195 5.017 3.407 8.362 6.07 12.389 12.389 2.168 3.376 3.964 5.822 6.194 9.291 1.92 3.036 1.983 4.863 3.098 9.292 1.734 6.876 6.194 29.64 0 46.459 3.747 4.243 19.667 5.76 27.875 9.292 6.659 2.85 9.354 6.256 15.486 12.389 2.168 2.168 7.681 3.747 9.292 6.194 2.509 3.779 1.3 7.991 3.097 12.39.558 1.33 2.912-.187 3.097 3.096.031.837-.31 2.354 0 3.098zM315.966 494.17c20.256.124 34.782-14.31 30.973-27.875-4.677-16.664-23.292-12.761-40.265-6.195 1.704 12.73 8.89 20.04 9.292 34.07zm-34.07-86.723c17.995-1.61 33.606-5.637 30.973-27.875-8.641-8.24-24.468-6.412-37.167-3.098-3.252 15.641 7.062 17.717 6.194 30.973z" fill="#fff"/><path d="M346.939 466.295c3.81 13.566-10.717 27.999-30.973 27.875-.402-14.03-7.588-21.34-9.292-34.07 16.973-6.566 35.588-10.469 40.265 6.195zm-34.07-86.723c2.633 22.238-12.978 26.264-30.973 27.875.868-13.256-9.446-15.332-6.194-30.973 12.699-3.314 28.526-5.141 37.167 3.098z"/><path d="M2408.122 708.09l-6.792-3.434 1.239-2.453 16.542 8.363-1.239 2.453-6.83-3.454-10.056 19.894-2.914-1.478zm25.977 25.792c1.412-3.2 3.106-7.047 4.547-9.816l-.1-.052a143.609 143.609 0 01-7.105 7.062l-9.428 8.845-2.183-1.105 1.762-12.467c.533-3.686 1.097-7.024 1.806-9.995l-.065-.034c-1.478 2.754-3.537 6.412-5.427 9.664l-5.438 9.276-2.754-1.39 12.854-21.558 3.68 1.862-1.652 12.73c-.461 3.224-.941 6.06-1.551 8.669l.096.052c1.706-1.97 3.741-4.02 6.16-6.337l9.44-8.799 3.68 1.865-9.902 23.046-2.818-1.424z" stroke-width="2.323" stroke="#000"/><path d="M2328.365 601.994c11.023 4.581 16.022 16.704 11.584 27.37-4.538 10.906-16.608 15.79-27.746 11.16-11.023-4.584-16.307-16.688-11.77-27.59 4.44-10.667 16.791-15.57 27.814-10.986zm-1.84 3.773c-8.443-3.512-17.651.771-21.163 9.214-3.56 8.561-.06 17.995 8.62 21.604 8.393 3.63 17.486-.707 21.045-9.264 3.512-8.443.177-17.943-8.384-21.501zm-13.467 24.106l-4.454-1.855 7.948-19.114c1.902.378 4.513 1.054 7.678 2.37 3.636 1.511 5.033 2.781 6.049 4.305.712 1.26.901 3.128.17 4.887-.926 2.227-3.252 3.184-5.888 2.912l-.096.232c1.63 1.366 2.054 3.333 1.568 6.151-.632 3.178-.768 4.498-.549 5.278l-4.803-2c-.298-.949.037-2.739.374-5.21.527-2.258-.254-3.68-2.716-4.708l-2.112-.877zm4.603-10.738l2.112.88c2.462 1.021 4.798 1.03 5.625-.964.728-1.756-.072-3.469-2.887-4.637-1.17-.489-2.041-.712-2.558-.79z" fill="#fff"/></svg>